<svg version="1.1" viewBox="0.0 0.0 257.4488188976378 154.51706036745406" fill="none" stroke="none" stroke-linecap="square" stroke-miterlimit="10" xmlns:xlink="http://www.w3.org/1999/xlink" xmlns="http://www.w3.org/2000/svg"><clipPath id="p.0"><path d="m0 0l257.44882 0l0 154.51706l-257.44882 0l0 -154.51706z" clip-rule="nonzero"/></clipPath><g clip-path="url(#p.0)"><path fill="#000000" fill-opacity="0.0" d="m0 0l257.44882 0l0 154.51706l-257.44882 0z" fill-rule="evenodd"/><path fill="#cfe2f3" d="m106.71654 15.6955385l0 0c0 -4.2501287 3.445404 -7.6955385 7.6955338 -7.6955385l34.593178 0c2.040985 0 3.9983673 0.81077766 5.441574 2.253971c1.4431915 1.4431934 2.2539673 3.4005833 2.2539673 5.4415674l0 30.782154c0 4.250126 -3.4454193 7.6955376 -7.6955414 7.6955376l-34.593178 0c-4.2501297 0 -7.6955338 -3.4454117 -7.6955338 -7.6955376z" fill-rule="evenodd"/><path stroke="#000000" stroke-width="1.0" stroke-linejoin="round" stroke-linecap="butt" d="m106.71654 15.6955385l0 0c0 -4.2501287 3.445404 -7.6955385 7.6955338 -7.6955385l34.593178 0c2.040985 0 3.9983673 0.81077766 5.441574 2.253971c1.4431915 1.4431934 2.2539673 3.4005833 2.2539673 5.4415674l0 30.782154c0 4.250126 -3.4454193 7.6955376 -7.6955414 7.6955376l-34.593178 0c-4.2501297 0 -7.6955338 -3.4454117 -7.6955338 -7.6955376z" fill-rule="evenodd"/><path fill="#000000" d="m125.68923 34.72536l1.609375 0.15625q-0.34375 1.1875 -1.59375 2.265625q-1.234375 1.078125 -2.96875 1.078125q-1.0625 0 -1.96875 -0.5q-0.890625 -0.5 -1.359375 -1.4375q-0.46875 -0.953125 -0.46875 -2.15625q0 -1.59375 0.734375 -3.078123q0.734375 -1.484375 1.890625 -2.203125q1.171875 -0.734375 2.53125 -0.734375q1.734375 0 2.765625 1.078125q1.03125 1.0625 1.03125 2.921873q0 0.71875 -0.125 1.46875l-7.125 0q-0.046875 0.28125 -0.046875 0.5q0 1.359375 0.625 2.078125q0.625 0.71875 1.53125 0.71875q0.84375 0 1.65625 -0.546875q0.828125 -0.5625 1.28125 -1.609375zm-4.78125 -2.40625l5.421875 0q0.015625 -0.25 0.015625 -0.3593731q0 -1.234375 -0.625 -1.890625q-0.625 -0.671875 -1.59375 -0.671875q-1.0625 0 -1.9375 0.734375q-0.859375 0.71875 -1.28125 2.187498zm8.766335 1.3125q0 -1.7031231 0.5 -3.453123q0.5 -1.75 1.125 -2.796875q0.625 -1.046875 1.28125 -1.640625q0.671875 -0.59375 1.3125 -0.859375q0.640625 -0.28125 1.421875 -0.28125q1.53125 0 2.546875 1.140625q1.03125 1.140625 1.03125 3.28125q0 2.21875 -0.703125 4.390623q-0.84375 2.5625 -2.34375 3.84375q-1.140625 0.984375 -2.609375 0.984375q-1.5 0 -2.53125 -1.171875q-1.03125 -1.1875 -1.03125 -3.4375zm1.59375 0.40625q0 1.234375 0.40625 1.921875q0.546875 0.96875 1.640625 0.96875q0.96875 0 1.75 -0.875q1.125 -1.21875 1.6875 -3.5625q0.578125 -2.359373 0.578125 -3.859373q0 -1.4375 -0.5625 -2.078125q-0.546875 -0.640625 -1.4375 -0.640625q-0.65625 0 -1.234375 0.34375q-0.5625 0.328125 -1.078125 1.15625q-0.75 1.15625 -1.296875 3.46875q-0.453125 1.9531231 -0.453125 3.156248z" fill-rule="nonzero"/><path fill="#cfe2f3" d="m106.71654 109.884514l0 0c0 -4.2501297 3.445404 -7.6955338 7.6955338 -7.6955338l34.593178 0c2.040985 0 3.9983673 0.81077576 5.441574 2.2539673c1.4431915 1.4431915 2.2539673 3.4005814 2.2539673 5.4415665l0 30.782158c0 4.250122 -3.4454193 7.695526 -7.6955414 7.695526l-34.593178 0c-4.2501297 0 -7.6955338 -3.445404 -7.6955338 -7.695526z" fill-rule="evenodd"/><path stroke="#000000" stroke-width="1.0" stroke-linejoin="round" stroke-linecap="butt" d="m106.71654 109.884514l0 0c0 -4.2501297 3.445404 -7.6955338 7.6955338 -7.6955338l34.593178 0c2.040985 0 3.9983673 0.81077576 5.441574 2.2539673c1.4431915 1.4431915 2.2539673 3.4005814 2.2539673 5.4415665l0 30.782158c0 4.250122 -3.4454193 7.695526 -7.6955414 7.695526l-34.593178 0c-4.2501297 0 -7.6955338 -3.445404 -7.6955338 -7.695526z" fill-rule="evenodd"/><path fill="#000000" d="m125.68923 128.91434l1.609375 0.15625q-0.34375 1.1875 -1.59375 2.265625q-1.234375 1.078125 -2.96875 1.078125q-1.0625 0 -1.96875 -0.5q-0.890625 -0.5 -1.359375 -1.4375q-0.46875 -0.953125 -0.46875 -2.15625q0 -1.59375 0.734375 -3.078125q0.734375 -1.484375 1.890625 -2.203125q1.171875 -0.734375 2.53125 -0.734375q1.734375 0 2.765625 1.078125q1.03125 1.0625 1.03125 2.921875q0 0.71875 -0.125 1.46875l-7.125 0q-0.046875 0.28125 -0.046875 0.5q0 1.359375 0.625 2.078125q0.625 0.71875 1.53125 0.71875q0.84375 0 1.65625 -0.546875q0.828125 -0.5625 1.28125 -1.609375zm-4.78125 -2.40625l5.421875 0q0.015625 -0.25 0.015625 -0.359375q0 -1.234375 -0.625 -1.890625q-0.625 -0.671875 -1.59375 -0.671875q-1.0625 0 -1.9375 0.734375q-0.859375 0.71875 -1.28125 2.1875zm11.922585 5.6875l2.125 -10.078125q-1.375 1.0625 -3.84375 1.71875l0.296875 -1.5q1.234375 -0.484375 2.4375 -1.28125q1.203125 -0.796875 1.796875 -1.390625q0.359375 -0.359375 0.6875 -0.875l0.96875 0l-2.796875 13.40625l-1.671875 0z" fill-rule="nonzero"/><path fill="#000000" fill-opacity="0.0" d="m138.91602 60.127296l48.59842 0l0 35.55905l-48.59842 0z" fill-rule="evenodd"/><path fill="#000000" d="m149.11914 76.349174l0 -1.328125l1.328125 0l0 1.328125l-1.328125 0zm0 5.578125l0 -1.328125l1.328125 0l0 1.328125l-1.328125 0zm3.3748627 0l0 -6.90625l1.0625 0l0 0.984375q0.75 -1.140625 2.1875 -1.140625q0.625 0 1.15625 0.21875q0.53125 0.21875 0.78125 0.59375q0.265625 0.359375 0.375 0.859375q0.0625 0.328125 0.0625 1.140625l0 4.25l-1.171875 0l0 -4.203125q0 -0.71875 -0.140625 -1.0625q-0.140625 -0.359375 -0.484375 -0.5625q-0.34375 -0.21875 -0.8125 -0.21875q-0.75 0 -1.296875 0.46875q-0.546875 0.46875 -0.546875 1.796875l0 3.78125l-1.171875 0zm12.146851 -2.21875l1.203125 0.140625q-0.28125 1.0625 -1.0625 1.65625q-0.765625 0.578125 -1.96875 0.578125q-1.515625 0 -2.40625 -0.9375q-0.890625 -0.9375 -0.890625 -2.609375q0 -1.75 0.890625 -2.703125q0.90625 -0.96875 2.34375 -0.96875q1.390625 0 2.265625 0.9375q0.875 0.9375 0.875 2.65625q0 0.109375 0 0.3125l-5.15625 0q0.0625 1.140625 0.640625 1.75q0.578125 0.59375 1.4375 0.59375q0.65625 0 1.109375 -0.328125q0.453125 -0.34375 0.71875 -1.078125zm-3.84375 -1.90625l3.859375 0q-0.078125 -0.859375 -0.4375 -1.296875q-0.5625 -0.6875 -1.453125 -0.6875q-0.8125 0 -1.359375 0.546875q-0.546875 0.53125 -0.609375 1.4375zm5.7406006 4.125l2.53125 -3.59375l-2.34375 -3.3125l1.46875 0l1.0625 1.609375q0.296875 0.46875 0.484375 0.78125q0.28125 -0.4375 0.515625 -0.765625l1.171875 -1.625l1.40625 0l-2.390625 3.25l2.5625 3.65625l-1.4375 0l-1.421875 -2.140625l-0.375 -0.59375l-1.8125 2.734375l-1.421875 0zm10.0078125 -1.046875l0.171875 1.03125q-0.5 0.109375 -0.890625 0.109375q-0.640625 0 -1.0 -0.203125q-0.34375 -0.203125 -0.484375 -0.53125q-0.140625 -0.328125 -0.140625 -1.390625l0 -3.96875l-0.859375 0l0 -0.90625l0.859375 0l0 -1.71875l1.171875 -0.703125l0 2.421875l1.171875 0l0 0.90625l-1.171875 0l0 4.046875q0 0.5 0.046875 0.640625q0.0625 0.140625 0.203125 0.234375q0.140625 0.078125 0.40625 0.078125q0.203125 0 0.515625 -0.046875z" fill-rule="nonzero"/><path fill="#000000" fill-opacity="0.0" d="m156.70079 31.086615c30.44751 0 60.88713 23.55118 60.895004 47.102364c0.007873535 23.551178 -30.416 47.102356 -60.832016 47.102356" fill-rule="evenodd"/><path stroke="#000000" stroke-width="1.0" stroke-linejoin="round" stroke-linecap="butt" stroke-dasharray="1.0,3.0" d="m162.69331 31.385899l0.41929626 0.041828156c0.23669434 0.024965286 0.47325134 0.051265717 0.70965576 0.078891754c0.4728241 0.055253983 0.94506836 0.11580467 1.4166107 0.18156815c0.94306946 0.13152695 1.8833618 0.2838955 2.819931 0.45639038c3.7462769 0.68997574 7.4329834 1.7019424 11.000763 2.9898949c7.1355133 2.5759125 13.795166 6.255783 19.503586 10.671631c11.416824 8.831692 19.028702 20.60728 19.032639 32.382877c0.007873535 23.551178 -30.416 47.102356 -60.832016 47.102356" fill-rule="evenodd"/><path fill="#000000" stroke="#000000" stroke-width="1.0" stroke-linecap="butt" d="m162.77571 29.736223l-4.6148376 1.4233112l4.450058 1.8760414z" fill-rule="evenodd"/><path fill="#000000" fill-opacity="0.0" d="m75.419945 60.127296l48.598427 0l0 35.55905l-48.598427 0z" fill-rule="evenodd"/><path fill="#000000" d="m85.62307 76.349174l0 -1.328125l1.328125 0l0 1.328125l-1.328125 0zm0 5.578125l0 -1.328125l1.328125 0l0 1.328125l-1.328125 0zm3.3748627 0l0 -6.90625l1.0625 0l0 0.984375q0.75 -1.140625 2.1875 -1.140625q0.625 0 1.15625 0.21875q0.53125 0.21875 0.78125 0.59375q0.265625 0.359375 0.375 0.859375q0.0625 0.328125 0.0625 1.140625l0 4.25l-1.171875 0l0 -4.203125q0 -0.71875 -0.140625 -1.0625q-0.140625 -0.359375 -0.484375 -0.5625q-0.34375 -0.21875 -0.8125 -0.21875q-0.75 0 -1.296875 0.46875q-0.546875 0.46875 -0.546875 1.796875l0 3.78125l-1.171875 0zm12.146851 -2.21875l1.203125 0.140625q-0.28125 1.0625 -1.0625 1.65625q-0.765625 0.578125 -1.96875 0.578125q-1.515625 0 -2.40625 -0.9375q-0.890625 -0.9375 -0.890625 -2.609375q0 -1.75 0.890625 -2.703125q0.90625 -0.96875 2.34375 -0.96875q1.390625 0 2.265625 0.9375q0.875 0.9375 0.875 2.65625q0 0.109375 0 0.3125l-5.15625 0q0.0625 1.140625 0.640625 1.75q0.578125 0.59375 1.4375 0.59375q0.65625 0 1.109375 -0.328125q0.453125 -0.34375 0.71875 -1.078125zm-3.84375 -1.90625l3.859375 0q-0.078125 -0.859375 -0.4375 -1.296875q-0.5625 -0.6875 -1.453125 -0.6875q-0.8125 0 -1.359375 0.546875q-0.546875 0.53125 -0.609375 1.4375zm5.7406006 4.125l2.53125 -3.59375l-2.34375 -3.3125l1.46875 0l1.0625 1.609375q0.296875 0.46875 0.484375 0.78125q0.28125 -0.4375 0.515625 -0.765625l1.171875 -1.625l1.40625 0l-2.390625 3.25l2.5625 3.65625l-1.4375 0l-1.421875 -2.140625l-0.375 -0.59375l-1.8125 2.734375l-1.421875 0zm10.0078125 -1.046875l0.171875 1.03125q-0.5 0.109375 -0.890625 0.109375q-0.640625 0 -1.0 -0.203125q-0.34375 -0.203125 -0.484375 -0.53125q-0.140625 -0.328125 -0.140625 -1.390625l0 -3.96875l-0.859375 0l0 -0.90625l0.859375 0l0 -1.71875l1.171875 -0.703125l0 2.421875l1.171875 0l0 0.90625l-1.171875 0l0 4.046875q0 0.5 0.046875 0.640625q0.0625 0.140625 0.203125 0.234375q0.140625 0.078125 0.40625 0.078125q0.203125 0 0.515625 -0.046875z" fill-rule="nonzero"/><path fill="#000000" fill-opacity="0.0" d="m-7.0183725 60.127296l48.598423 0l0 35.55905l-48.598423 0z" fill-rule="evenodd"/><path fill="#000000" d="m3.1847522 76.349174l0 -1.328125l1.3281252 0l0 1.328125l-1.3281252 0zm0 5.578125l0 -1.328125l1.3281252 0l0 1.328125l-1.3281252 0zm3.374863 2.65625l0 -9.5625l1.078125 0l0 0.890625q0.375 -0.53125 0.84375 -0.78125q0.484375 -0.265625 1.15625 -0.265625q0.875 0 1.546875 0.453125q0.6875 0.453125 1.03125 1.28125q0.34375 0.828125 0.34375 1.828125q0 1.046875 -0.375 1.90625q-0.375 0.84375 -1.109375 1.296875q-0.71875 0.453125 -1.53125 0.453125q-0.578125 0 -1.046875 -0.25q-0.46875 -0.25 -0.765625 -0.625l0 3.375l-1.171875 0zm1.0625 -6.078125q0 1.34375 0.53125 1.984375q0.546875 0.625 1.3125 0.625q0.78125 0 1.34375 -0.65625q0.5625 -0.65625 0.5625 -2.046875q0 -1.3125 -0.546875 -1.96875q-0.546875 -0.671875 -1.296875 -0.671875q-0.75 0 -1.328125 0.703125q-0.578125 0.703125 -0.578125 2.03125zm6.3343506 3.421875l0 -6.90625l1.0625 0l0 1.046875q0.40625 -0.734375 0.734375 -0.96875q0.34374905 -0.234375 0.76562405 -0.234375q0.59375 0 1.203125 0.375l-0.40625 1.078125q-0.4375 -0.25 -0.859375 -0.25q-0.390625 0 -0.70312405 0.234375q-0.296875 0.234375 -0.421875 0.640625q-0.203125 0.625 -0.203125 1.359375l0 3.625l-1.171875 0zm9.188369 -2.21875l1.203125 0.140625q-0.28125 1.0625 -1.0625 1.65625q-0.765625 0.578125 -1.96875 0.578125q-1.515625 0 -2.40625 -0.9375q-0.890625 -0.9375 -0.890625 -2.609375q0 -1.75 0.890625 -2.703125q0.90625 -0.96875 2.34375 -0.96875q1.390625 0 2.265625 0.9375q0.875 0.9375 0.875 2.65625q0 0.109375 0 0.3125l-5.15625 0q0.0625 1.140625 0.640625 1.75q0.578125 0.59375 1.4375 0.59375q0.65625 0 1.109375 -0.328125q0.453125 -0.34375 0.71875 -1.078125zm-3.84375 -1.90625l3.859375 0q-0.078125 -0.859375 -0.4375 -1.296875q-0.5625 -0.6875 -1.453125 -0.6875q-0.8125 0 -1.359375 0.546875q-0.546875 0.53125 -0.609375 1.4375zm8.443726 4.125l-2.625 -6.90625l1.234375 0l1.484375 4.140625q0.234375 0.65625 0.4375 1.390625q0.15625 -0.546875 0.4375 -1.3125l1.53125 -4.21875l1.21875 0l-2.625 6.90625l-1.09375 0z" fill-rule="nonzero"/><path fill="#000000" fill-opacity="0.0" d="m212.57742 60.127296l48.59842 0l0 35.55905l-48.59842 0z" fill-rule="evenodd"/><path fill="#000000" d="m222.78055 76.349174l0 -1.328125l1.328125 0l0 1.328125l-1.328125 0zm0 5.578125l0 -1.328125l1.328125 0l0 1.328125l-1.328125 0zm3.3748627 2.65625l0 -9.5625l1.078125 0l0 0.890625q0.375 -0.53125 0.84375 -0.78125q0.484375 -0.265625 1.15625 -0.265625q0.875 0 1.546875 0.453125q0.6875 0.453125 1.03125 1.28125q0.34375 0.828125 0.34375 1.828125q0 1.046875 -0.375 1.90625q-0.375 0.84375 -1.109375 1.296875q-0.71875 0.453125 -1.53125 0.453125q-0.578125 0 -1.046875 -0.25q-0.46875 -0.25 -0.765625 -0.625l0 3.375l-1.171875 0zm1.0625 -6.078125q0 1.34375 0.53125 1.984375q0.546875 0.625 1.3125 0.625q0.78125 0 1.34375 -0.65625q0.5625 -0.65625 0.5625 -2.046875q0 -1.3125 -0.546875 -1.96875q-0.546875 -0.671875 -1.296875 -0.671875q-0.75 0 -1.328125 0.703125q-0.578125 0.703125 -0.578125 2.03125zm6.3343506 3.421875l0 -6.90625l1.0625 0l0 1.046875q0.40625 -0.734375 0.734375 -0.96875q0.34375 -0.234375 0.765625 -0.234375q0.59375 0 1.203125 0.375l-0.40625 1.078125q-0.4375 -0.25 -0.859375 -0.25q-0.390625 0 -0.703125 0.234375q-0.296875 0.234375 -0.421875 0.640625q-0.203125 0.625 -0.203125 1.359375l0 3.625l-1.171875 0zm9.18837 -2.21875l1.203125 0.140625q-0.28125 1.0625 -1.0625 1.65625q-0.765625 0.578125 -1.96875 0.578125q-1.515625 0 -2.40625 -0.9375q-0.890625 -0.9375 -0.890625 -2.609375q0 -1.75 0.890625 -2.703125q0.90625 -0.96875 2.34375 -0.96875q1.390625 0 2.265625 0.9375q0.875 0.9375 0.875 2.65625q0 0.109375 0 0.3125l-5.15625 0q0.0625 1.140625 0.640625 1.75q0.578125 0.59375 1.4375 0.59375q0.65625 0 1.109375 -0.328125q0.453125 -0.34375 0.71875 -1.078125zm-3.84375 -1.90625l3.859375 0q-0.078125 -0.859375 -0.4375 -1.296875q-0.5625 -0.6875 -1.453125 -0.6875q-0.8125 0 -1.359375 0.546875q-0.546875 0.53125 -0.609375 1.4375zm8.443726 4.125l-2.625 -6.90625l1.234375 0l1.484375 4.140625q0.234375 0.65625 0.4375 1.390625q0.15625 -0.546875 0.4375 -1.3125l1.53125 -4.21875l1.21875 0l-2.625 6.90625l-1.09375 0z" fill-rule="nonzero"/><path fill="#000000" fill-opacity="0.0" d="m156.70079 31.086615c12.5 0 24.992126 23.55118 25.0 47.102364c0.007873535 23.551178 -12.468506 47.102356 -24.937012 47.102356" fill-rule="evenodd"/><path stroke="#000000" stroke-width="1.0" stroke-linejoin="round" stroke-linecap="butt" stroke-dasharray="4.0,3.0" d="m156.70079 31.086615c12.5 0 24.992126 23.55118 25.0 47.102364c0.0039367676 11.775589 -3.1131897 23.551178 -7.789871 32.382874c-2.3383331 4.41584 -5.066559 8.095718 -7.9894714 10.671623c-0.73072815 0.64398193 -1.4736328 1.218956 -2.225647 1.7191925c-0.37600708 0.25011444 -0.754303 0.4815445 -1.134491 0.693573l-0.021347046 0.0116119385" fill-rule="evenodd"/><path fill="#000000" stroke="#000000" stroke-width="1.0" stroke-linecap="butt" d="m162.09303 122.077736l-3.9218903 2.818039l4.81575 0.3622055z" fill-rule="evenodd"/><path fill="#000000" fill-opacity="0.0" d="m106.71654 31.086615c-12.5 0 -25.007874 23.55118 -25.0 47.102364c0.007873535 23.551178 12.531494 47.102356 25.062988 47.102356" fill-rule="evenodd"/><path stroke="#000000" stroke-width="1.0" stroke-linejoin="round" stroke-linecap="butt" stroke-dasharray="4.0,3.0" d="m100.93842 32.703224l-0.034072876 0.018489838c-0.38114166 0.21202469 -0.7603836 0.44345474 -1.1373444 0.6935692c-0.7539139 0.5002327 -1.4986954 1.0752144 -2.2312622 1.7191887c-2.9303055 2.5759125 -5.6654205 6.255783 -8.009659 10.671631c-4.688484 8.831692 -7.813484 20.60728 -7.8095474 32.382877c0.007873535 23.551178 12.531494 47.102356 25.062988 47.102356" fill-rule="evenodd"/><path fill="#000000" stroke="#000000" stroke-width="1.0" stroke-linecap="butt" d="m101.38345 34.29387l3.9252396 -2.8133678l-4.8153 -0.36792946z" fill-rule="evenodd"/><path fill="#000000" fill-opacity="0.0" d="m106.71654 31.086615c-33.309715 0 -66.627304 23.55118 -66.61942 47.102364c0.007873535 23.551178 33.34121 47.102356 66.68241 47.102356" fill-rule="evenodd"/><path stroke="#000000" stroke-width="1.0" stroke-linejoin="round" stroke-linecap="butt" stroke-dasharray="1.0,3.0" d="m106.71654 31.086615c-33.309715 0 -66.627304 23.55118 -66.61942 47.102364c0.0039367676 11.775589 8.339237 23.551178 20.841206 32.382874c6.250988 4.41584 13.543636 8.095718 21.357365 10.671623c3.906868 1.2879562 7.9440002 2.2999191 12.046333 2.989891c2.0511703 0.3449936 4.1186295 0.60948944 6.194252 0.787735l0.24847412 0.02002716" fill-rule="evenodd"/><path fill="#000000" stroke="#000000" stroke-width="1.0" stroke-linecap="butt" d="m100.715866 126.69143l4.6030273 -1.461052l-4.465271 -1.8395386z" fill-rule="evenodd"/></g></svg>