<svg version="1.1" viewBox="0.0 0.0 334.18897637795277 169.35958005249344" fill="none" stroke="none" stroke-linecap="square" stroke-miterlimit="10" xmlns:xlink="http://www.w3.org/1999/xlink" xmlns="http://www.w3.org/2000/svg"><clipPath id="p.0"><path d="m0 0l334.18896 0l0 169.35957l-334.18896 0l0 -169.35957z" clip-rule="nonzero"/></clipPath><g clip-path="url(#p.0)"><path fill="#000000" fill-opacity="0.0" d="m0 0l334.18896 0l0 169.35957l-334.18896 0z" fill-rule="evenodd"/><path fill="#cfe2f3" d="m8.0 68.22572l0 0c0 -3.75148 3.041173 -6.792652 6.792651 -6.792652l29.879265 0c1.8015213 0 3.5292587 0.71565247 4.8031273 1.989521c1.2738686 1.2738724 1.989521 3.0016098 1.989521 4.803131l0 27.1706c0 3.75148 -3.041172 6.792656 -6.7926483 6.792656l-29.879265 0c-3.7514782 0 -6.792651 -3.0411758 -6.792651 -6.792656z" fill-rule="evenodd"/><path stroke="#000000" stroke-width="1.0" stroke-linejoin="round" stroke-linecap="butt" d="m8.0 68.22572l0 0c0 -3.75148 3.041173 -6.792652 6.792651 -6.792652l29.879265 0c1.8015213 0 3.5292587 0.71565247 4.8031273 1.989521c1.2738686 1.2738724 1.989521 3.0016098 1.989521 4.803131l0 27.1706c0 3.75148 -3.041172 6.792656 -6.7926483 6.792656l-29.879265 0c-3.7514782 0 -6.792651 -3.0411758 -6.792651 -6.792656z" fill-rule="evenodd"/><path fill="#000000" d="m20.677 80.91852l0 -1.859375l1.859375 0l0 1.859375l-1.859375 0zm0 7.8125l0 -1.875l1.859375 0l0 1.875l-1.859375 0zm4.730179 3.703125l0 -13.375l1.484375 0l0 1.25q0.53125 -0.734375 1.1875 -1.09375q0.671875 -0.375 1.625 -0.375q1.234375 0 2.171875 0.640625q0.9531231 0.625 1.4374981 1.796875q0.484375 1.15625 0.484375 2.546875q0 1.484375 -0.53125 2.671875q-0.53125 1.1875 -1.5468731 1.828125q-1.015625 0.625 -2.140625 0.625q-0.8125 0 -1.46875 -0.34375q-0.65625 -0.34375 -1.0625 -0.875l0 4.703125l-1.640625 0zm1.484375 -8.484375q0 1.859375 0.75 2.765625q0.765625 0.890625 1.828125 0.890625q1.09375 0 1.875 -0.921875q0.7812481 -0.9375 0.7812481 -2.875q0 -1.84375 -0.7656231 -2.765625q-0.75 -0.921875 -1.8125 -0.921875q-1.046875 0 -1.859375 0.984375q-0.796875 0.96875 -0.796875 2.84375z" fill-rule="nonzero"/><path fill="#cfe2f3" d="m106.71654 15.6955385l0 0c0 -4.2501287 3.445404 -7.6955385 7.6955338 -7.6955385l53.42782 0c2.040985 0 3.9983826 0.81077766 5.441574 2.253971c1.4431915 1.4431934 2.2539673 3.4005833 2.2539673 5.4415674l0 30.782154c0 4.250126 -3.445404 7.6955376 -7.6955414 7.6955376l-53.42782 0c-4.2501297 0 -7.6955338 -3.4454117 -7.6955338 -7.6955376z" fill-rule="evenodd"/><path stroke="#000000" stroke-width="1.0" stroke-linejoin="round" stroke-linecap="butt" d="m106.71654 15.6955385l0 0c0 -4.2501287 3.445404 -7.6955385 7.6955338 -7.6955385l53.42782 0c2.040985 0 3.9983826 0.81077766 5.441574 2.253971c1.4431915 1.4431934 2.2539673 3.4005833 2.2539673 5.4415674l0 30.782154c0 4.250126 -3.445404 7.6955376 -7.6955414 7.6955376l-53.42782 0c-4.2501297 0 -7.6955338 -3.4454117 -7.6955338 -7.6955376z" fill-rule="evenodd"/><path fill="#000000" d="m117.68923 41.709736l0 -1.1875l10.859367 0l0 1.1875l-10.859367 0zm12.34446 -11.515623l0 -1.859375l1.859375 0l0 1.859375l-1.859375 0zm0 7.812498l0 -1.875l1.859375 0l0 1.875l-1.859375 0zm6.230179 0l-1.515625 0l0 -13.359373l1.640625 0l0 4.765625q1.046875 -1.296875 2.65625 -1.296875q0.890625 0 1.6875 0.359375q0.796875 0.359375 1.3125 1.015625q0.515625 0.640625 0.796875 1.5625q0.296875 0.921875 0.296875 1.9687481q0 2.484375 -1.234375 3.84375q-1.21875 1.359375 -2.953125 1.359375q-1.703125 0 -2.6875 -1.4375l0 1.21875zm-0.015625 -4.90625q0 1.734375 0.484375 2.515625q0.765625 1.265625 2.09375 1.265625q1.078125 0 1.859375 -0.9375q0.78125 -0.9375 0.78125 -2.78125q0 -1.8906231 -0.75 -2.796873q-0.75 -0.90625 -1.828125 -0.90625q-1.0625 0 -1.859375 0.9375q-0.78125 0.9375 -0.78125 2.703123zm8.438217 -1.6874981q0 -2.359375 0.484375 -3.796875q0.484375 -1.453125 1.4375 -2.234375q0.96875 -0.78125 2.421875 -0.78125q1.078125 0 1.890625 0.4375q0.8125 0.421875 1.328125 1.25q0.53125 0.8125 0.828125 1.984375q0.3125 1.15625 0.3125 3.140625q0 2.359373 -0.484375 3.812498q-0.484375 1.4375 -1.453125 2.234375q-0.953125 0.78125 -2.421875 0.78125q-1.921875 0 -3.03125 -1.390625q-1.3125 -1.671875 -1.3125 -5.437498zm1.671875 0q0 3.296873 0.765625 4.390623q0.78125 1.078125 1.90625 1.078125q1.140625 0 1.90625 -1.09375q0.765625 -1.09375 0.765625 -4.374998q0 -3.296875 -0.765625 -4.375q-0.765625 -1.078125 -1.921875 -1.078125q-1.125 0 -1.796875 0.953125q-0.859375 1.21875 -0.859375 4.5z" fill-rule="nonzero"/><path fill="#cfe2f3" d="m106.71654 109.884514l0 0c0 -4.2501297 3.445404 -7.6955338 7.6955338 -7.6955338l53.42782 0c2.040985 0 3.9983826 0.81077576 5.441574 2.2539673c1.4431915 1.4431915 2.2539673 3.4005814 2.2539673 5.4415665l0 30.782158c0 4.250122 -3.445404 7.695526 -7.6955414 7.695526l-53.42782 0c-4.2501297 0 -7.6955338 -3.445404 -7.6955338 -7.695526z" fill-rule="evenodd"/><path stroke="#000000" stroke-width="1.0" stroke-linejoin="round" stroke-linecap="butt" d="m106.71654 109.884514l0 0c0 -4.2501297 3.445404 -7.6955338 7.6955338 -7.6955338l53.42782 0c2.040985 0 3.9983826 0.81077576 5.441574 2.2539673c1.4431915 1.4431915 2.2539673 3.4005814 2.2539673 5.4415665l0 30.782158c0 4.250122 -3.445404 7.695526 -7.6955414 7.695526l-53.42782 0c-4.2501297 0 -7.6955338 -3.445404 -7.6955338 -7.695526z" fill-rule="evenodd"/><path fill="#000000" d="m117.68923 135.89871l0 -1.1875l10.859367 0l0 1.1875l-10.859367 0zm12.34446 -11.515625l0 -1.859375l1.859375 0l0 1.859375l-1.859375 0zm0 7.8125l0 -1.875l1.859375 0l0 1.875l-1.859375 0zm6.230179 0l-1.515625 0l0 -13.359375l1.640625 0l0 4.765625q1.046875 -1.296875 2.65625 -1.296875q0.890625 0 1.6875 0.359375q0.796875 0.359375 1.3125 1.015625q0.515625 0.640625 0.796875 1.5625q0.296875 0.921875 0.296875 1.96875q0 2.484375 -1.234375 3.84375q-1.21875 1.359375 -2.953125 1.359375q-1.703125 0 -2.6875 -1.4375l0 1.21875zm-0.015625 -4.90625q0 1.734375 0.484375 2.515625q0.765625 1.265625 2.09375 1.265625q1.078125 0 1.859375 -0.9375q0.78125 -0.9375 0.78125 -2.78125q0 -1.890625 -0.75 -2.796875q-0.75 -0.90625 -1.828125 -0.90625q-1.0625 0 -1.859375 0.9375q-0.78125 0.9375 -0.78125 2.703125zm14.610092 4.90625l-1.640625 0l0 -10.453125q-0.59375 0.5625 -1.5625 1.140625q-0.953125 0.5625 -1.71875 0.84375l0 -1.59375q1.375 -0.640625 2.40625 -1.5625q1.03125 -0.921875 1.453125 -1.78125l1.0625 0l0 13.40625z" fill-rule="nonzero"/><path fill="#cfe2f3" d="m228.92389 67.821526l0 0c0 -4.2501297 3.445404 -7.6955414 7.695526 -7.6955414l53.427826 0c2.040985 0 3.9983826 0.81077576 5.441559 2.253971c1.4432068 1.4431915 2.2539673 3.4005852 2.2539673 5.4415703l0 30.78215c0 4.2501297 -3.445404 7.6955338 -7.695526 7.6955338l-53.427826 0c-4.250122 0 -7.695526 -3.445404 -7.695526 -7.6955338z" fill-rule="evenodd"/><path stroke="#000000" stroke-width="1.0" stroke-linejoin="round" stroke-linecap="butt" d="m228.92389 67.821526l0 0c0 -4.2501297 3.445404 -7.6955414 7.695526 -7.6955414l53.427826 0c2.040985 0 3.9983826 0.81077576 5.441559 2.253971c1.4432068 1.4431915 2.2539673 3.4005852 2.2539673 5.4415703l0 30.78215c0 4.2501297 -3.445404 7.6955338 -7.695526 7.6955338l-53.427826 0c-4.250122 0 -7.695526 -3.445404 -7.695526 -7.6955338z" fill-rule="evenodd"/><path fill="#000000" d="m239.89658 93.835724l0 -1.1875l10.859375 0l0 1.1875l-10.859375 0zm12.344467 -11.515625l0 -1.859375l1.859375 0l0 1.859375l-1.859375 0zm0 7.8125l0 -1.875l1.859375 0l0 1.875l-1.859375 0zm6.230179 0l-1.515625 0l0 -13.359375l1.640625 0l0 4.765625q1.046875 -1.296875 2.65625 -1.296875q0.890625 0 1.6875 0.359375q0.796875 0.359375 1.3125 1.015625q0.515625 0.640625 0.796875 1.5625q0.296875 0.921875 0.296875 1.96875q0 2.484375 -1.234375 3.84375q-1.21875 1.359375 -2.953125 1.359375q-1.703125 0 -2.6875 -1.4375l0 1.21875zm-0.015625 -4.90625q0 1.734375 0.484375 2.515625q0.765625 1.265625 2.09375 1.265625q1.078125 0 1.859375 -0.9375q0.78125 -0.9375 0.78125 -2.78125q0 -1.890625 -0.75 -2.796875q-0.75 -0.90625 -1.828125 -0.90625q-1.0625 0 -1.859375 0.9375q-0.78125 0.9375 -0.78125 2.703125zm17.047607 3.328125l0 1.578125l-8.828125 0q-0.015625 -0.59375 0.1875 -1.140625q0.34375 -0.90625 1.078125 -1.78125q0.75 -0.875 2.15625 -2.015625q2.171875 -1.78125 2.9375 -2.828125q0.765625 -1.046875 0.765625 -1.96875q0 -0.984375 -0.703125 -1.640625q-0.6875 -0.671875 -1.8125 -0.671875q-1.1875 0 -1.90625 0.71875q-0.703125 0.703125 -0.703125 1.953125l-1.6875 -0.171875q0.171875 -1.890625 1.296875 -2.875q1.140625 -0.984375 3.03125 -0.984375q1.921875 0 3.046875 1.0625q1.125 1.0625 1.125 2.640625q0 0.796875 -0.328125 1.578125q-0.328125 0.78125 -1.09375 1.640625q-0.75 0.84375 -2.53125 2.34375q-1.46875 1.234375 -1.890625 1.6875q-0.421875 0.4375 -0.6875 0.875l6.546875 0z" fill-rule="nonzero"/><path fill="#000000" fill-opacity="0.0" d="m106.71654 31.086615l-55.244095 50.740158" fill-rule="evenodd"/><path stroke="#000000" stroke-width="1.0" stroke-linejoin="round" stroke-linecap="butt" d="m106.71654 31.086615l-50.82515 46.681473" fill-rule="evenodd"/><path fill="#000000" stroke="#000000" stroke-width="1.0" stroke-linecap="butt" d="m54.774082 76.551605l-2.2249641 4.28627l4.4595795 -1.8532944z" fill-rule="evenodd"/><path fill="#000000" fill-opacity="0.0" d="m106.71654 125.27559l-55.244095 -43.46457" fill-rule="evenodd"/><path stroke="#000000" stroke-width="1.0" stroke-linejoin="round" stroke-linecap="butt" d="m106.71654 125.27559l-50.52861 -39.754547" fill-rule="evenodd"/><path fill="#000000" stroke="#000000" stroke-width="1.0" stroke-linecap="butt" d="m57.20925 84.22292l-4.587883 -1.5079498l2.5452309 4.104187z" fill-rule="evenodd"/><path fill="#000000" fill-opacity="0.0" d="m51.32021 19.417322l43.464565 0l0 42.015747l-43.464565 0z" fill-rule="evenodd"/><path fill="#000000" d="m62.00771 38.524822l0 -1.859375l1.859375 0l0 1.859375l-1.859375 0zm0 7.8125l0 -1.875l1.859375 0l0 1.875l-1.859375 0zm10.886433 3.703125l0 -4.734375q-0.375 0.546875 -1.0625 0.90625q-0.6875 0.34375 -1.46875 0.34375q-1.71875 0 -2.96875 -1.375q-1.234375 -1.375 -1.234375 -3.765625q0 -1.46875 0.5 -2.625q0.515625 -1.15625 1.46875 -1.75q0.96875 -0.59375 2.109375 -0.59375q1.796875 0 2.828125 1.515625l0 -1.296875l1.46875 0l0 13.375l-1.640625 0zm-5.046875 -8.5625q0 1.859375 0.78125 2.796875q0.78125 0.9375 1.875 0.9375q1.046875 0 1.796875 -0.890625q0.765625 -0.890625 0.765625 -2.703125q0 -1.9375 -0.796875 -2.90625q-0.796875 -0.96875 -1.875 -0.96875q-1.0625 0 -1.8125 0.90625q-0.734375 0.90625 -0.734375 2.828125z" fill-rule="nonzero"/><path fill="#000000" fill-opacity="0.0" d="m51.32021 101.27559l43.464565 0l0 42.015747l-43.464565 0z" fill-rule="evenodd"/><path fill="#000000" d="m62.00771 120.38309l0 -1.859375l1.859375 0l0 1.859375l-1.859375 0zm0 7.8125l0 -1.875l1.859375 0l0 1.875l-1.859375 0zm4.7145576 0l0 -9.671875l1.46875 0l0 1.46875q0.5625 -1.03125 1.03125 -1.359375q0.484375 -0.328125 1.0625 -0.328125q0.828125 0 1.6875 0.53125l-0.5625 1.515625q-0.609375 -0.359375 -1.203125 -0.359375q-0.546875 0 -0.96875 0.328125q-0.421875 0.328125 -0.609375 0.890625q-0.28125 0.875 -0.28125 1.921875l0 5.0625l-1.625 0z" fill-rule="nonzero"/><path fill="#000000" fill-opacity="0.0" d="m190.48819 19.448818l43.46457 0l0 42.015747l-43.46457 0z" fill-rule="evenodd"/><path fill="#000000" d="m201.17569 38.556316l0 -1.859375l1.859375 0l0 1.859375l-1.859375 0zm0 7.8125l0 -1.875l1.859375 0l0 1.875l-1.859375 0zm4.730179 3.703125l0 -13.375l1.484375 0l0 1.25q0.53125 -0.734375 1.1875 -1.09375q0.671875 -0.375 1.625 -0.375q1.234375 0 2.171875 0.640625q0.953125 0.625 1.4375 1.796875q0.484375 1.15625 0.484375 2.546875q0 1.484375 -0.53125 2.671875q-0.53125 1.1875 -1.546875 1.828125q-1.015625 0.625 -2.140625 0.625q-0.8125 0 -1.46875 -0.34375q-0.65625 -0.34375 -1.0625 -0.875l0 4.703125l-1.640625 0zm1.484375 -8.484375q0 1.859375 0.75 2.765625q0.765625 0.890625 1.828125 0.890625q1.09375 0 1.875 -0.921875q0.78125 -0.9375 0.78125 -2.875q0 -1.84375 -0.765625 -2.765625q-0.75 -0.921875 -1.8125 -0.921875q-1.046875 0 -1.859375 0.984375q-0.796875 0.96875 -0.796875 2.84375z" fill-rule="nonzero"/><path fill="#000000" fill-opacity="0.0" d="m175.53543 31.086615l53.385834 52.125984" fill-rule="evenodd"/><path stroke="#000000" stroke-width="1.0" stroke-linejoin="round" stroke-linecap="butt" d="m175.53543 31.086615l49.092834 47.934296" fill-rule="evenodd"/><path fill="#000000" stroke="#000000" stroke-width="1.0" stroke-linecap="butt" d="m223.47435 80.20273l4.4009247 1.9885635l-2.0930786 -4.352188z" fill-rule="evenodd"/><path fill="#000000" fill-opacity="0.0" d="m175.53543 125.27559l53.385834 -42.04724" fill-rule="evenodd"/><path stroke="#000000" stroke-width="1.0" stroke-linejoin="round" stroke-linecap="butt" d="m175.53543 125.27559l48.67227 -38.334785" fill-rule="evenodd"/><path fill="#000000" stroke="#000000" stroke-width="1.0" stroke-linecap="butt" d="m225.22969 88.23839l2.543106 -4.1054993l-4.587097 1.5103226z" fill-rule="evenodd"/><path fill="#000000" fill-opacity="0.0" d="m190.48819 96.267715l43.46457 0l0 42.015747l-43.46457 0z" fill-rule="evenodd"/><path fill="#000000" d="m201.17569 115.37521l0 -1.859375l1.859375 0l0 1.859375l-1.859375 0zm0 7.8125l0 -1.875l1.859375 0l0 1.875l-1.859375 0zm4.730179 3.703125l0 -13.375l1.484375 0l0 1.25q0.53125 -0.734375 1.1875 -1.09375q0.671875 -0.375 1.625 -0.375q1.234375 0 2.171875 0.640625q0.953125 0.625 1.4375 1.796875q0.484375 1.15625 0.484375 2.546875q0 1.484375 -0.53125 2.671875q-0.53125 1.1875 -1.546875 1.828125q-1.015625 0.625 -2.140625 0.625q-0.8125 0 -1.46875 -0.34375q-0.65625 -0.34375 -1.0625 -0.875l0 4.703125l-1.640625 0zm1.484375 -8.484375q0 1.859375 0.75 2.765625q0.765625 0.890625 1.828125 0.890625q1.09375 0 1.875 -0.921875q0.78125 -0.9375 0.78125 -2.875q0 -1.84375 -0.765625 -2.765625q-0.75 -0.921875 -1.8125 -0.921875q-1.046875 0 -1.859375 0.984375q-0.796875 0.96875 -0.796875 2.84375z" fill-rule="nonzero"/></g></svg>