<svg version="1.1" viewBox="0.0 0.0 334.18897637795277 169.35958005249344" fill="none" stroke="none" stroke-linecap="square" stroke-miterlimit="10" xmlns:xlink="http://www.w3.org/1999/xlink" xmlns="http://www.w3.org/2000/svg"><clipPath id="p.0"><path d="m0 0l334.18896 0l0 169.35957l-334.18896 0l0 -169.35957z" clip-rule="nonzero"/></clipPath><g clip-path="url(#p.0)"><path fill="#000000" fill-opacity="0.0" d="m0 0l334.18896 0l0 169.35957l-334.18896 0z" fill-rule="evenodd"/><path fill="#cfe2f3" d="m8.0 68.22572l0 0c0 -3.75148 3.041173 -6.792652 6.792651 -6.792652l29.879265 0c1.8015213 0 3.5292587 0.71565247 4.8031273 1.989521c1.2738686 1.2738724 1.989521 3.0016098 1.989521 4.803131l0 27.1706c0 3.75148 -3.041172 6.792656 -6.7926483 6.792656l-29.879265 0c-3.7514782 0 -6.792651 -3.0411758 -6.792651 -6.792656z" fill-rule="evenodd"/><path stroke="#000000" stroke-width="1.0" stroke-linejoin="round" stroke-linecap="butt" d="m8.0 68.22572l0 0c0 -3.75148 3.041173 -6.792652 6.792651 -6.792652l29.879265 0c1.8015213 0 3.5292587 0.71565247 4.8031273 1.989521c1.2738686 1.2738724 1.989521 3.0016098 1.989521 4.803131l0 27.1706c0 3.75148 -3.041172 6.792656 -6.7926483 6.792656l-29.879265 0c-3.7514782 0 -6.792651 -3.0411758 -6.792651 -6.792656z" fill-rule="evenodd"/><path fill="#000000" d="m20.677 80.91852l0 -1.859375l1.859375 0l0 1.859375l-1.859375 0zm0 7.8125l0 -1.875l1.859375 0l0 1.875l-1.859375 0zm4.730179 3.703125l0 -13.375l1.484375 0l0 1.25q0.53125 -0.734375 1.1875 -1.09375q0.671875 -0.375 1.625 -0.375q1.234375 0 2.171875 0.640625q0.9531231 0.625 1.4374981 1.796875q0.484375 1.15625 0.484375 2.546875q0 1.484375 -0.53125 2.671875q-0.53125 1.1875 -1.5468731 1.828125q-1.015625 0.625 -2.140625 0.625q-0.8125 0 -1.46875 -0.34375q-0.65625 -0.34375 -1.0625 -0.875l0 4.703125l-1.640625 0zm1.484375 -8.484375q0 1.859375 0.75 2.765625q0.765625 0.890625 1.828125 0.890625q1.09375 0 1.875 -0.921875q0.7812481 -0.9375 0.7812481 -2.875q0 -1.84375 -0.7656231 -2.765625q-0.75 -0.921875 -1.8125 -0.921875q-1.046875 0 -1.859375 0.984375q-0.796875 0.96875 -0.796875 2.84375z" fill-rule="nonzero"/><path fill="#cfe2f3" d="m106.71654 15.6955385l0 0c0 -4.2501287 3.445404 -7.6955385 7.6955338 -7.6955385l53.42782 0c2.040985 0 3.9983826 0.81077766 5.441574 2.253971c1.4431915 1.4431934 2.2539673 3.4005833 2.2539673 5.4415674l0 30.782154c0 4.250126 -3.445404 7.6955376 -7.6955414 7.6955376l-53.42782 0c-4.2501297 0 -7.6955338 -3.4454117 -7.6955338 -7.6955376z" fill-rule="evenodd"/><path stroke="#000000" stroke-width="1.0" stroke-linejoin="round" stroke-linecap="butt" d="m106.71654 15.6955385l0 0c0 -4.2501287 3.445404 -7.6955385 7.6955338 -7.6955385l53.42782 0c2.040985 0 3.9983826 0.81077766 5.441574 2.253971c1.4431915 1.4431934 2.2539673 3.4005833 2.2539673 5.4415674l0 30.782154c0 4.250126 -3.445404 7.6955376 -7.6955414 7.6955376l-53.42782 0c-4.2501297 0 -7.6955338 -3.4454117 -7.6955338 -7.6955376z" fill-rule="evenodd"/><path fill="#000000" d="m117.68923 41.709736l0 -1.1875l10.859367 0l0 1.1875l-10.859367 0zm12.34446 -11.515623l0 -1.859375l1.859375 0l0 1.859375l-1.859375 0zm0 7.812498l0 -1.875l1.859375 0l0 1.875l-1.859375 0zm11.355179 -3.109375l1.6875 0.203125q-0.40625 1.484375 -1.484375 2.3125q-1.078125 0.8125 -2.765625 0.8125q-2.125 0 -3.375 -1.296875q-1.234375 -1.3125 -1.234375 -3.671875q0 -2.453123 1.25 -3.796873q1.265625 -1.34375 3.265625 -1.34375q1.9375 0 3.15625 1.328125q1.234375 1.3125 1.234375 3.703123q0 0.15625 0 0.4375l-7.21875 0q0.09375 1.59375 0.90625 2.453125q0.8125 0.84375 2.015625 0.84375q0.90625 0 1.546875 -0.46875q0.640625 -0.484375 1.015625 -1.515625zm-5.390625 -2.65625l5.40625 0q-0.109375 -1.2187481 -0.625 -1.8281231q-0.78125 -0.953125 -2.03125 -0.953125q-1.125 0 -1.90625 0.765625q-0.765625 0.75 -0.84375 2.015623zm8.688217 -0.8281231q0 -2.359375 0.484375 -3.796875q0.484375 -1.453125 1.4375 -2.234375q0.96875 -0.78125 2.421875 -0.78125q1.078125 0 1.890625 0.4375q0.8125 0.421875 1.328125 1.25q0.53125 0.8125 0.828125 1.984375q0.3125 1.15625 0.3125 3.140625q0 2.359373 -0.484375 3.812498q-0.484375 1.4375 -1.453125 2.234375q-0.953125 0.78125 -2.421875 0.78125q-1.921875 0 -3.03125 -1.390625q-1.3125 -1.671875 -1.3125 -5.437498zm1.671875 0q0 3.296873 0.765625 4.390623q0.78125 1.078125 1.90625 1.078125q1.140625 0 1.90625 -1.09375q0.765625 -1.09375 0.765625 -4.374998q0 -3.296875 -0.765625 -4.375q-0.765625 -1.078125 -1.921875 -1.078125q-1.125 0 -1.796875 0.953125q-0.859375 1.21875 -0.859375 4.5z" fill-rule="nonzero"/><path fill="#cfe2f3" d="m106.71654 109.884514l0 0c0 -4.2501297 3.445404 -7.6955338 7.6955338 -7.6955338l53.42782 0c2.040985 0 3.9983826 0.81077576 5.441574 2.2539673c1.4431915 1.4431915 2.2539673 3.4005814 2.2539673 5.4415665l0 30.782158c0 4.250122 -3.445404 7.695526 -7.6955414 7.695526l-53.42782 0c-4.2501297 0 -7.6955338 -3.445404 -7.6955338 -7.695526z" fill-rule="evenodd"/><path stroke="#000000" stroke-width="1.0" stroke-linejoin="round" stroke-linecap="butt" d="m106.71654 109.884514l0 0c0 -4.2501297 3.445404 -7.6955338 7.6955338 -7.6955338l53.42782 0c2.040985 0 3.9983826 0.81077576 5.441574 2.2539673c1.4431915 1.4431915 2.2539673 3.4005814 2.2539673 5.4415665l0 30.782158c0 4.250122 -3.445404 7.695526 -7.6955414 7.695526l-53.42782 0c-4.2501297 0 -7.6955338 -3.445404 -7.6955338 -7.695526z" fill-rule="evenodd"/><path fill="#000000" d="m117.68923 135.89871l0 -1.1875l10.859367 0l0 1.1875l-10.859367 0zm12.34446 -11.515625l0 -1.859375l1.859375 0l0 1.859375l-1.859375 0zm0 7.8125l0 -1.875l1.859375 0l0 1.875l-1.859375 0zm11.355179 -3.109375l1.6875 0.203125q-0.40625 1.484375 -1.484375 2.3125q-1.078125 0.8125 -2.765625 0.8125q-2.125 0 -3.375 -1.296875q-1.234375 -1.3125 -1.234375 -3.671875q0 -2.453125 1.25 -3.796875q1.265625 -1.34375 3.265625 -1.34375q1.9375 0 3.15625 1.328125q1.234375 1.3125 1.234375 3.703125q0 0.15625 0 0.4375l-7.21875 0q0.09375 1.59375 0.90625 2.453125q0.8125 0.84375 2.015625 0.84375q0.90625 0 1.546875 -0.46875q0.640625 -0.484375 1.015625 -1.515625zm-5.390625 -2.65625l5.40625 0q-0.109375 -1.21875 -0.625 -1.828125q-0.78125 -0.953125 -2.03125 -0.953125q-1.125 0 -1.90625 0.765625q-0.765625 0.75 -0.84375 2.015625zm14.860092 5.765625l-1.640625 0l0 -10.453125q-0.59375 0.5625 -1.5625 1.140625q-0.953125 0.5625 -1.71875 0.84375l0 -1.59375q1.375 -0.640625 2.40625 -1.5625q1.03125 -0.921875 1.453125 -1.78125l1.0625 0l0 13.40625z" fill-rule="nonzero"/><path fill="#cfe2f3" d="m248.90552 15.6955385l0 0c0 -4.2501287 3.445404 -7.6955385 7.695526 -7.6955385l53.427826 0c2.040985 0 3.9983826 0.81077766 5.441559 2.253971c1.4432068 1.4431934 2.2539673 3.4005833 2.2539673 5.4415674l0 30.782154c0 4.250126 -3.445404 7.6955376 -7.695526 7.6955376l-53.427826 0c-4.250122 0 -7.695526 -3.4454117 -7.695526 -7.6955376z" fill-rule="evenodd"/><path stroke="#000000" stroke-width="1.0" stroke-linejoin="round" stroke-linecap="butt" d="m248.90552 15.6955385l0 0c0 -4.2501287 3.445404 -7.6955385 7.695526 -7.6955385l53.427826 0c2.040985 0 3.9983826 0.81077766 5.441559 2.253971c1.4432068 1.4431934 2.2539673 3.4005833 2.2539673 5.4415674l0 30.782154c0 4.250126 -3.445404 7.6955376 -7.695526 7.6955376l-53.427826 0c-4.250122 0 -7.695526 -3.4454117 -7.695526 -7.6955376z" fill-rule="evenodd"/><path fill="#000000" d="m259.8782 41.709736l0 -1.1875l10.859375 0l0 1.1875l-10.859375 0zm12.344482 -11.515623l0 -1.859375l1.859375 0l0 1.859375l-1.859375 0zm0 7.812498l0 -1.875l1.859375 0l0 1.875l-1.859375 0zm11.355164 -3.109375l1.6875 0.203125q-0.40625 1.484375 -1.484375 2.3125q-1.078125 0.8125 -2.765625 0.8125q-2.125 0 -3.375 -1.296875q-1.234375 -1.3125 -1.234375 -3.671875q0 -2.453123 1.25 -3.796873q1.265625 -1.34375 3.265625 -1.34375q1.9375 0 3.15625 1.328125q1.234375 1.3125 1.234375 3.703123q0 0.15625 0 0.4375l-7.21875 0q0.09375 1.59375 0.90625 2.453125q0.8125 0.84375 2.015625 0.84375q0.90625 0 1.546875 -0.46875q0.640625 -0.484375 1.015625 -1.515625zm-5.390625 -2.65625l5.40625 0q-0.109375 -1.2187481 -0.625 -1.8281231q-0.78125 -0.953125 -2.03125 -0.953125q-1.125 0 -1.90625 0.765625q-0.765625 0.75 -0.84375 2.015623zm17.297607 4.1875l0 1.578125l-8.828125 0q-0.015625 -0.59375 0.1875 -1.140625q0.34375 -0.90625 1.078125 -1.78125q0.75 -0.875 2.15625 -2.015625q2.171875 -1.7812481 2.9375 -2.828123q0.765625 -1.046875 0.765625 -1.96875q0 -0.984375 -0.703125 -1.640625q-0.6875 -0.671875 -1.8125 -0.671875q-1.1875 0 -1.90625 0.71875q-0.703125 0.703125 -0.703125 1.953125l-1.6875 -0.171875q0.171875 -1.890625 1.296875 -2.875q1.140625 -0.984375 3.03125 -0.984375q1.921875 0 3.046875 1.0625q1.125 1.0625 1.125 2.640625q0 0.796875 -0.328125 1.578125q-0.328125 0.78125 -1.09375 1.640625q-0.75 0.8437481 -2.53125 2.343748q-1.46875 1.234375 -1.890625 1.6875q-0.421875 0.4375 -0.6875 0.875l6.546875 0z" fill-rule="nonzero"/><path fill="#cfe2f3" d="m248.90552 109.884514l0 0c0 -4.2501297 3.445404 -7.6955338 7.695526 -7.6955338l53.427826 0c2.040985 0 3.9983826 0.81077576 5.441559 2.2539673c1.4432068 1.4431915 2.2539673 3.4005814 2.2539673 5.4415665l0 30.782158c0 4.250122 -3.445404 7.695526 -7.695526 7.695526l-53.427826 0c-4.250122 0 -7.695526 -3.445404 -7.695526 -7.695526z" fill-rule="evenodd"/><path stroke="#000000" stroke-width="1.0" stroke-linejoin="round" stroke-linecap="butt" d="m248.90552 109.884514l0 0c0 -4.2501297 3.445404 -7.6955338 7.695526 -7.6955338l53.427826 0c2.040985 0 3.9983826 0.81077576 5.441559 2.2539673c1.4432068 1.4431915 2.2539673 3.4005814 2.2539673 5.4415665l0 30.782158c0 4.250122 -3.445404 7.695526 -7.695526 7.695526l-53.427826 0c-4.250122 0 -7.695526 -3.445404 -7.695526 -7.695526z" fill-rule="evenodd"/><path fill="#000000" d="m259.8782 135.89871l0 -1.1875l10.859375 0l0 1.1875l-10.859375 0zm12.344482 -11.515625l0 -1.859375l1.859375 0l0 1.859375l-1.859375 0zm0 7.8125l0 -1.875l1.859375 0l0 1.875l-1.859375 0zm11.355164 -3.109375l1.6875 0.203125q-0.40625 1.484375 -1.484375 2.3125q-1.078125 0.8125 -2.765625 0.8125q-2.125 0 -3.375 -1.296875q-1.234375 -1.3125 -1.234375 -3.671875q0 -2.453125 1.25 -3.796875q1.265625 -1.34375 3.265625 -1.34375q1.9375 0 3.15625 1.328125q1.234375 1.3125 1.234375 3.703125q0 0.15625 0 0.4375l-7.21875 0q0.09375 1.59375 0.90625 2.453125q0.8125 0.84375 2.015625 0.84375q0.90625 0 1.546875 -0.46875q0.640625 -0.484375 1.015625 -1.515625zm-5.390625 -2.65625l5.40625 0q-0.109375 -1.21875 -0.625 -1.828125q-0.78125 -0.953125 -2.03125 -0.953125q-1.125 0 -1.90625 0.765625q-0.765625 0.75 -0.84375 2.015625zm8.688232 2.234375l1.640625 -0.21875q0.28125 1.40625 0.953125 2.015625q0.6875 0.609375 1.65625 0.609375q1.15625 0 1.953125 -0.796875q0.796875 -0.796875 0.796875 -1.984375q0 -1.125 -0.734375 -1.859375q-0.734375 -0.734375 -1.875 -0.734375q-0.46875 0 -1.15625 0.171875l0.1875 -1.4375q0.15625 0.015625 0.265625 0.015625q1.046875 0 1.875 -0.546875q0.84375 -0.546875 0.84375 -1.671875q0 -0.90625 -0.609375 -1.5q-0.609375 -0.59375 -1.578125 -0.59375q-0.953125 0 -1.59375 0.609375q-0.640625 0.59375 -0.8125 1.796875l-1.640625 -0.296875q0.296875 -1.640625 1.359375 -2.546875q1.0625 -0.90625 2.65625 -0.90625q1.09375 0 2.0 0.46875q0.921875 0.46875 1.40625 1.28125q0.5 0.8125 0.5 1.71875q0 0.859375 -0.46875 1.578125q-0.46875 0.703125 -1.375 1.125q1.1875 0.28125 1.84375 1.140625q0.65625 0.859375 0.65625 2.15625q0 1.734375 -1.28125 2.953125q-1.265625 1.21875 -3.21875 1.21875q-1.765625 0 -2.921875 -1.046875q-1.15625 -1.046875 -1.328125 -2.71875z" fill-rule="nonzero"/><path fill="#000000" fill-opacity="0.0" d="m51.464565 81.81102l55.2441 -50.708656" fill-rule="evenodd"/><path stroke="#000000" stroke-width="1.0" stroke-linejoin="round" stroke-linecap="butt" d="m51.464565 81.81102l50.823895 -46.651344" fill-rule="evenodd"/><path fill="#000000" stroke="#000000" stroke-width="1.0" stroke-linecap="butt" d="m103.40539 36.376507l2.2262878 -4.2855797l-4.4601517 1.8519173z" fill-rule="evenodd"/><path fill="#000000" fill-opacity="0.0" d="m283.31497 54.17323l0 48.031498" fill-rule="evenodd"/><path stroke="#000000" stroke-width="1.0" stroke-linejoin="round" stroke-linecap="butt" d="m283.31497 54.17323l0 42.031498" fill-rule="evenodd"/><path fill="#000000" stroke="#000000" stroke-width="1.0" stroke-linecap="butt" d="m281.66324 96.20473l1.6517334 4.5380936l1.6517334 -4.5380936z" fill-rule="evenodd"/><path fill="#000000" fill-opacity="0.0" d="m43.32021 11.417323l43.464565 0l0 42.015747l-43.464565 0z" fill-rule="evenodd"/><path fill="#000000" d="m54.00771 30.52482l0 -1.859375l1.859375 0l0 1.859375l-1.859375 0zm0 7.812502l0 -1.875l1.859375 0l0 1.875l-1.859375 0zm10.886433 3.703125l0 -4.734375q-0.375 0.546875 -1.0625038 0.90625q-0.6875 0.34375 -1.46875 0.34375q-1.71875 0 -2.96875 -1.375q-1.234375 -1.375 -1.234375 -3.765625q0 -1.4687519 0.5 -2.625002q0.515625 -1.15625 1.46875 -1.75q0.96875 -0.59375 2.109375 -0.59375q1.7968788 0 2.8281288 1.515625l0 -1.296875l1.46875 0l0 13.375002l-1.640625 0zm-5.046879 -8.5625q0 1.859375 0.78125 2.796875q0.78125 0.9375 1.875 0.9375q1.046875 0 1.7968788 -0.890625q0.765625 -0.890625 0.765625 -2.703125q0 -1.9375019 -0.796875 -2.906252q-0.7968788 -0.96875 -1.8750038 -0.96875q-1.0625 0 -1.8125 0.90625q-0.734375 0.90625 -0.734375 2.828127z" fill-rule="nonzero"/><path fill="#000000" fill-opacity="0.0" d="m43.32021 101.27559l43.464565 0l0 42.015747l-43.464565 0z" fill-rule="evenodd"/><path fill="#000000" d="m54.00771 120.38309l0 -1.859375l1.859375 0l0 1.859375l-1.859375 0zm0 7.8125l0 -1.875l1.859375 0l0 1.875l-1.859375 0zm10.886433 3.703125l0 -4.734375q-0.375 0.546875 -1.0625038 0.90625q-0.6875 0.34375 -1.46875 0.34375q-1.71875 0 -2.96875 -1.375q-1.234375 -1.375 -1.234375 -3.765625q0 -1.46875 0.5 -2.625q0.515625 -1.15625 1.46875 -1.75q0.96875 -0.59375 2.109375 -0.59375q1.7968788 0 2.8281288 1.515625l0 -1.296875l1.46875 0l0 13.375l-1.640625 0zm-5.046879 -8.5625q0 1.859375 0.78125 2.796875q0.78125 0.9375 1.875 0.9375q1.046875 0 1.7968788 -0.890625q0.765625 -0.890625 0.765625 -2.703125q0 -1.9375 -0.796875 -2.90625q-0.7968788 -0.96875 -1.8750038 -0.96875q-1.0625 0 -1.8125 0.90625q-0.734375 0.90625 -0.734375 2.828125z" fill-rule="nonzero"/><path fill="#000000" fill-opacity="0.0" d="m190.48819 27.448818l43.46457 0l0 42.01575l-43.46457 0z" fill-rule="evenodd"/><path fill="#000000" d="m201.17569 46.556316l0 -1.859375l1.859375 0l0 1.859375l-1.859375 0zm0 7.8125l0 -1.875l1.859375 0l0 1.875l-1.859375 0zm4.730179 3.703125l0 -13.375l1.484375 0l0 1.25q0.53125 -0.734375 1.1875 -1.09375q0.671875 -0.375 1.625 -0.375q1.234375 0 2.171875 0.640625q0.953125 0.625 1.4375 1.796875q0.484375 1.15625 0.484375 2.546875q0 1.484375 -0.53125 2.671875q-0.53125 1.1875 -1.546875 1.828125q-1.015625 0.625 -2.140625 0.625q-0.8125 0 -1.46875 -0.34375q-0.65625 -0.34375 -1.0625 -0.875l0 4.703125l-1.640625 0zm1.484375 -8.484375q0 1.859375 0.75 2.765625q0.765625 0.890625 1.828125 0.890625q1.09375 0 1.875 -0.921875q0.78125 -0.9375 0.78125 -2.875q0 -1.84375 -0.765625 -2.765625q-0.75 -0.921875 -1.8125 -0.921875q-1.046875 0 -1.859375 0.984375q-0.796875 0.96875 -0.796875 2.84375z" fill-rule="nonzero"/><path fill="#000000" fill-opacity="0.0" d="m190.48819 126.314964l43.46457 0l0 42.01574l-43.46457 0z" fill-rule="evenodd"/><path fill="#000000" d="m201.17569 145.42245l0 -1.859375l1.859375 0l0 1.859375l-1.859375 0zm0 7.8125l0 -1.875l1.859375 0l0 1.875l-1.859375 0zm4.730179 3.703125l0 -13.375l1.484375 0l0 1.25q0.53125 -0.734375 1.1875 -1.09375q0.671875 -0.375 1.625 -0.375q1.234375 0 2.171875 0.640625q0.953125 0.625 1.4375 1.796875q0.484375 1.15625 0.484375 2.546875q0 1.484375 -0.53125 2.671875q-0.53125 1.1875 -1.546875 1.828125q-1.015625 0.625 -2.140625 0.625q-0.8125 0 -1.46875 -0.34375q-0.65625 -0.34375 -1.0625 -0.875l0 4.703125l-1.640625 0zm1.484375 -8.484375q0 1.859375 0.75 2.765625q0.765625 0.890625 1.828125 0.890625q1.09375 0 1.875 -0.921875q0.78125 -0.9375 0.78125 -2.875q0 -1.84375 -0.765625 -2.765625q-0.75 -0.921875 -1.8125 -0.921875q-1.046875 0 -1.859375 0.984375q-0.796875 0.96875 -0.796875 2.84375z" fill-rule="nonzero"/><path fill="#000000" fill-opacity="0.0" d="m290.11023 57.17323l43.46457 0l0 42.01575l-43.46457 0z" fill-rule="evenodd"/><path fill="#000000" d="m300.79773 76.28072l0 -1.859375l1.859375 0l0 1.859375l-1.859375 0zm0 7.8125l0 -1.875l1.859375 0l0 1.875l-1.859375 0zm4.714569 0l0 -9.671875l1.46875 0l0 1.46875q0.5625 -1.03125 1.03125 -1.359375q0.484375 -0.328125 1.0625 -0.328125q0.828125 0 1.6875 0.53125l-0.5625 1.515625q-0.609375 -0.359375 -1.203125 -0.359375q-0.546875 0 -0.96875 0.328125q-0.421875 0.328125 -0.609375 0.890625q-0.28125 0.875 -0.28125 1.921875l0 5.0625l-1.625 0z" fill-rule="nonzero"/><path fill="#000000" fill-opacity="0.0" d="m51.464565 81.81102l55.2441 43.46457" fill-rule="evenodd"/><path stroke="#000000" stroke-width="1.0" stroke-linejoin="round" stroke-linecap="butt" d="m51.464565 81.81102l50.528614 39.754555" fill-rule="evenodd"/><path fill="#000000" stroke="#000000" stroke-width="1.0" stroke-linecap="butt" d="m100.971855 122.86369l4.5878754 1.5079498l-2.545227 -4.104187z" fill-rule="evenodd"/><path fill="#000000" fill-opacity="0.0" d="m175.53543 31.086615l73.38583 0" fill-rule="evenodd"/><path stroke="#000000" stroke-width="1.0" stroke-linejoin="round" stroke-linecap="butt" d="m175.53543 31.086615l67.38583 0" fill-rule="evenodd"/><path fill="#000000" stroke="#000000" stroke-width="1.0" stroke-linecap="butt" d="m242.92126 32.738346l4.538086 -1.6517315l-4.538086 -1.6517334z" fill-rule="evenodd"/><path fill="#000000" fill-opacity="0.0" d="m175.53543 125.27559l73.38583 0" fill-rule="evenodd"/><path stroke="#000000" stroke-width="1.0" stroke-linejoin="round" stroke-linecap="butt" d="m175.53543 125.27559l67.38583 0" fill-rule="evenodd"/><path fill="#000000" stroke="#000000" stroke-width="1.0" stroke-linecap="butt" d="m242.92126 126.92732l4.538086 -1.6517334l-4.538086 -1.6517334z" fill-rule="evenodd"/></g></svg>