<svg version="1.1" viewBox="0.0 0.0 265.26509186351706 165.35695538057743" fill="none" stroke="none" stroke-linecap="square" stroke-miterlimit="10" xmlns:xlink="http://www.w3.org/1999/xlink" xmlns="http://www.w3.org/2000/svg"><clipPath id="p.0"><path d="m0 0l265.2651 0l0 165.35695l-265.2651 0l0 -165.35695z" clip-rule="nonzero"/></clipPath><g clip-path="url(#p.0)"><path fill="#000000" fill-opacity="0.0" d="m0 0l265.2651 0l0 165.35695l-265.2651 0z" fill-rule="evenodd"/><path fill="#cfe2f3" d="m8.0 68.22572l0 0c0 -3.75148 3.041173 -6.792652 6.792651 -6.792652l29.879265 0c1.8015213 0 3.5292587 0.71565247 4.8031273 1.989521c1.2738686 1.2738724 1.989521 3.0016098 1.989521 4.803131l0 27.1706c0 3.75148 -3.041172 6.792656 -6.7926483 6.792656l-29.879265 0c-3.7514782 0 -6.792651 -3.0411758 -6.792651 -6.792656z" fill-rule="evenodd"/><path stroke="#000000" stroke-width="1.0" stroke-linejoin="round" stroke-linecap="butt" d="m8.0 68.22572l0 0c0 -3.75148 3.041173 -6.792652 6.792651 -6.792652l29.879265 0c1.8015213 0 3.5292587 0.71565247 4.8031273 1.989521c1.2738686 1.2738724 1.989521 3.0016098 1.989521 4.803131l0 27.1706c0 3.75148 -3.041172 6.792656 -6.7926483 6.792656l-29.879265 0c-3.7514782 0 -6.792651 -3.0411758 -6.792651 -6.792656z" fill-rule="evenodd"/><path fill="#000000" d="m20.677 80.91852l0 -1.859375l1.859375 0l0 1.859375l-1.859375 0zm0 7.8125l0 -1.875l1.859375 0l0 1.875l-1.859375 0zm4.730179 3.703125l0 -13.375l1.484375 0l0 1.25q0.53125 -0.734375 1.1875 -1.09375q0.671875 -0.375 1.625 -0.375q1.234375 0 2.171875 0.640625q0.9531231 0.625 1.4374981 1.796875q0.484375 1.15625 0.484375 2.546875q0 1.484375 -0.53125 2.671875q-0.53125 1.1875 -1.5468731 1.828125q-1.015625 0.625 -2.140625 0.625q-0.8125 0 -1.46875 -0.34375q-0.65625 -0.34375 -1.0625 -0.875l0 4.703125l-1.640625 0zm1.484375 -8.484375q0 1.859375 0.75 2.765625q0.765625 0.890625 1.828125 0.890625q1.09375 0 1.875 -0.921875q0.7812481 -0.9375 0.7812481 -2.875q0 -1.84375 -0.7656231 -2.765625q-0.75 -0.921875 -1.8125 -0.921875q-1.046875 0 -1.859375 0.984375q-0.796875 0.96875 -0.796875 2.84375z" fill-rule="nonzero"/><path fill="#cfe2f3" d="m106.71654 15.6955385l0 0c0 -4.2501287 3.445404 -7.6955385 7.6955338 -7.6955385l31.097115 0l0 0c2.040985 0 3.9983673 0.81077766 5.441574 2.253971c1.4431915 1.4431934 2.2539673 3.4005833 2.2539673 5.4415674l0 30.782154c0 4.250126 -3.4454193 7.6955376 -7.6955414 7.6955376l-31.097115 0c-4.2501297 0 -7.6955338 -3.4454117 -7.6955338 -7.6955376z" fill-rule="evenodd"/><path stroke="#000000" stroke-width="1.0" stroke-linejoin="round" stroke-linecap="butt" d="m106.71654 15.6955385l0 0c0 -4.2501287 3.445404 -7.6955385 7.6955338 -7.6955385l31.097115 0l0 0c2.040985 0 3.9983673 0.81077766 5.441574 2.253971c1.4431915 1.4431934 2.2539673 3.4005833 2.2539673 5.4415674l0 30.782154c0 4.250126 -3.4454193 7.6955376 -7.6955414 7.6955376l-31.097115 0c-4.2501297 0 -7.6955338 -3.4454117 -7.6955338 -7.6955376z" fill-rule="evenodd"/><path fill="#000000" d="m125.68923 34.72536l1.609375 0.15625q-0.34375 1.1875 -1.59375 2.265625q-1.234375 1.078125 -2.96875 1.078125q-1.0625 0 -1.96875 -0.5q-0.890625 -0.5 -1.359375 -1.4375q-0.46875 -0.953125 -0.46875 -2.15625q0 -1.59375 0.734375 -3.078123q0.734375 -1.484375 1.890625 -2.203125q1.171875 -0.734375 2.53125 -0.734375q1.734375 0 2.765625 1.078125q1.03125 1.0625 1.03125 2.921873q0 0.71875 -0.125 1.46875l-7.125 0q-0.046875 0.28125 -0.046875 0.5q0 1.359375 0.625 2.078125q0.625 0.71875 1.53125 0.71875q0.84375 0 1.65625 -0.546875q0.828125 -0.5625 1.28125 -1.609375zm-4.78125 -2.40625l5.421875 0q0.015625 -0.25 0.015625 -0.3593731q0 -1.234375 -0.625 -1.890625q-0.625 -0.671875 -1.59375 -0.671875q-1.0625 0 -1.9375 0.734375q-0.859375 0.71875 -1.28125 2.187498zm8.766335 1.3125q0 -1.7031231 0.5 -3.453123q0.5 -1.75 1.125 -2.796875q0.625 -1.046875 1.28125 -1.640625q0.671875 -0.59375 1.3125 -0.859375q0.640625 -0.28125 1.421875 -0.28125q1.53125 0 2.546875 1.140625q1.03125 1.140625 1.03125 3.28125q0 2.21875 -0.703125 4.390623q-0.84375 2.5625 -2.34375 3.84375q-1.140625 0.984375 -2.609375 0.984375q-1.5 0 -2.53125 -1.171875q-1.03125 -1.1875 -1.03125 -3.4375zm1.59375 0.40625q0 1.234375 0.40625 1.921875q0.546875 0.96875 1.640625 0.96875q0.96875 0 1.75 -0.875q1.125 -1.21875 1.6875 -3.5625q0.578125 -2.359373 0.578125 -3.859373q0 -1.4375 -0.5625 -2.078125q-0.546875 -0.640625 -1.4375 -0.640625q-0.65625 0 -1.234375 0.34375q-0.5625 0.328125 -1.078125 1.15625q-0.75 1.15625 -1.296875 3.46875q-0.453125 1.9531231 -0.453125 3.156248z" fill-rule="nonzero"/><path fill="#cfe2f3" d="m106.71654 109.884514l0 0c0 -4.2501297 3.445404 -7.6955338 7.6955338 -7.6955338l31.097115 0l0 0c2.040985 0 3.9983673 0.81077576 5.441574 2.2539673c1.4431915 1.4431915 2.2539673 3.4005814 2.2539673 5.4415665l0 30.782158c0 4.250122 -3.4454193 7.695526 -7.6955414 7.695526l-31.097115 0c-4.2501297 0 -7.6955338 -3.445404 -7.6955338 -7.695526z" fill-rule="evenodd"/><path stroke="#000000" stroke-width="1.0" stroke-linejoin="round" stroke-linecap="butt" d="m106.71654 109.884514l0 0c0 -4.2501297 3.445404 -7.6955338 7.6955338 -7.6955338l31.097115 0l0 0c2.040985 0 3.9983673 0.81077576 5.441574 2.2539673c1.4431915 1.4431915 2.2539673 3.4005814 2.2539673 5.4415665l0 30.782158c0 4.250122 -3.4454193 7.695526 -7.6955414 7.695526l-31.097115 0c-4.2501297 0 -7.6955338 -3.445404 -7.6955338 -7.695526z" fill-rule="evenodd"/><path fill="#000000" d="m125.68923 128.91434l1.609375 0.15625q-0.34375 1.1875 -1.59375 2.265625q-1.234375 1.078125 -2.96875 1.078125q-1.0625 0 -1.96875 -0.5q-0.890625 -0.5 -1.359375 -1.4375q-0.46875 -0.953125 -0.46875 -2.15625q0 -1.59375 0.734375 -3.078125q0.734375 -1.484375 1.890625 -2.203125q1.171875 -0.734375 2.53125 -0.734375q1.734375 0 2.765625 1.078125q1.03125 1.0625 1.03125 2.921875q0 0.71875 -0.125 1.46875l-7.125 0q-0.046875 0.28125 -0.046875 0.5q0 1.359375 0.625 2.078125q0.625 0.71875 1.53125 0.71875q0.84375 0 1.65625 -0.546875q0.828125 -0.5625 1.28125 -1.609375zm-4.78125 -2.40625l5.421875 0q0.015625 -0.25 0.015625 -0.359375q0 -1.234375 -0.625 -1.890625q-0.625 -0.671875 -1.59375 -0.671875q-1.0625 0 -1.9375 0.734375q-0.859375 0.71875 -1.28125 2.1875zm11.922585 5.6875l2.125 -10.078125q-1.375 1.0625 -3.84375 1.71875l0.296875 -1.5q1.234375 -0.484375 2.4375 -1.28125q1.203125 -0.796875 1.796875 -1.390625q0.359375 -0.359375 0.6875 -0.875l0.96875 0l-2.796875 13.40625l-1.671875 0z" fill-rule="nonzero"/><path fill="#cfe2f3" d="m199.67455 15.687664l0 0c0 -4.2501287 3.445404 -7.695538 7.695526 -7.695538l31.097122 0l0 0c2.040985 0 3.9983673 0.8107772 5.441559 2.2539706c1.4432068 1.4431934 2.2539825 3.4005842 2.2539825 5.4415674l0 30.782154c0 4.250126 -3.4454193 7.6955376 -7.6955414 7.6955376l-31.097122 0c-4.250122 0 -7.695526 -3.4454117 -7.695526 -7.6955376z" fill-rule="evenodd"/><path stroke="#000000" stroke-width="1.0" stroke-linejoin="round" stroke-linecap="butt" d="m199.67455 15.687664l0 0c0 -4.2501287 3.445404 -7.695538 7.695526 -7.695538l31.097122 0l0 0c2.040985 0 3.9983673 0.8107772 5.441559 2.2539706c1.4432068 1.4431934 2.2539825 3.4005842 2.2539825 5.4415674l0 30.782154c0 4.250126 -3.4454193 7.6955376 -7.6955414 7.6955376l-31.097122 0c-4.250122 0 -7.695526 -3.4454117 -7.695526 -7.6955376z" fill-rule="evenodd"/><path fill="#000000" d="m218.64723 34.717487l1.609375 0.15625q-0.34375 1.1875 -1.59375 2.265625q-1.234375 1.078125 -2.96875 1.078125q-1.0625 0 -1.96875 -0.5q-0.890625 -0.5 -1.359375 -1.4375q-0.46875 -0.953125 -0.46875 -2.15625q0 -1.59375 0.734375 -3.078123q0.734375 -1.484375 1.890625 -2.203125q1.171875 -0.734375 2.53125 -0.734375q1.734375 0 2.765625 1.078125q1.03125 1.0625 1.03125 2.921873q0 0.71875 -0.125 1.46875l-7.125 0q-0.046875 0.28125 -0.046875 0.5q0 1.359375 0.625 2.078125q0.625 0.71875 1.53125 0.71875q0.84375 0 1.65625 -0.546875q0.828125 -0.5625 1.28125 -1.609375zm-4.78125 -2.40625l5.421875 0q0.015625 -0.25 0.015625 -0.3593731q0 -1.234375 -0.625 -1.890625q-0.625 -0.671875 -1.59375 -0.671875q-1.0625 0 -1.9375 0.734375q-0.859375 0.71875 -1.28125 2.187498zm8.531967 5.6875q0.25 -1.1875 0.703125 -2.0q0.453125 -0.8125 1.203125 -1.53125q0.75 -0.71875 2.875 -2.421875q1.296875 -1.0312481 1.765625 -1.5312481q0.6875 -0.703125 1.0 -1.390625q0.203125 -0.46875 0.203125 -1.015625q0 -0.90625 -0.65625 -1.546875q-0.640625 -0.65625 -1.59375 -0.65625q-0.9375 0 -1.640625 0.65625q-0.703125 0.65625 -1.0 2.09375l-1.609375 -0.234375q0.234375 -1.78125 1.375 -2.796875q1.140625 -1.03125 2.84375 -1.03125q1.140625 0 2.0625 0.46875q0.9375 0.46875 1.390625 1.328125q0.46875 0.859375 0.46875 1.765625q0 1.328125 -0.953125 2.5625q-0.578125 0.765625 -3.421875 3.015623q-1.21875 0.96875 -1.8125 1.59375q-0.59375 0.609375 -0.90625 1.15625l5.984375 0l-0.3125 1.515625l-7.96875 0z" fill-rule="nonzero"/><path fill="#cfe2f3" d="m199.67455 109.87664l0 0c0 -4.2501297 3.445404 -7.6955414 7.695526 -7.6955414l31.097122 0l0 0c2.040985 0 3.9983673 0.8107834 5.441559 2.253975c1.4432068 1.4431915 2.2539825 3.4005814 2.2539825 5.4415665l0 30.782158c0 4.250122 -3.4454193 7.695526 -7.6955414 7.695526l-31.097122 0c-4.250122 0 -7.695526 -3.445404 -7.695526 -7.695526z" fill-rule="evenodd"/><path stroke="#000000" stroke-width="1.0" stroke-linejoin="round" stroke-linecap="butt" d="m199.67455 109.87664l0 0c0 -4.2501297 3.445404 -7.6955414 7.695526 -7.6955414l31.097122 0l0 0c2.040985 0 3.9983673 0.8107834 5.441559 2.253975c1.4432068 1.4431915 2.2539825 3.4005814 2.2539825 5.4415665l0 30.782158c0 4.250122 -3.4454193 7.695526 -7.6955414 7.695526l-31.097122 0c-4.250122 0 -7.695526 -3.445404 -7.695526 -7.695526z" fill-rule="evenodd"/><path fill="#000000" d="m218.64723 128.90646l1.609375 0.15625q-0.34375 1.1875 -1.59375 2.265625q-1.234375 1.078125 -2.96875 1.078125q-1.0625 0 -1.96875 -0.5q-0.890625 -0.5 -1.359375 -1.4375q-0.46875 -0.953125 -0.46875 -2.15625q0 -1.59375 0.734375 -3.078125q0.734375 -1.484375 1.890625 -2.203125q1.171875 -0.734375 2.53125 -0.734375q1.734375 0 2.765625 1.078125q1.03125 1.0625 1.03125 2.921875q0 0.71875 -0.125 1.46875l-7.125 0q-0.046875 0.28125 -0.046875 0.5q0 1.359375 0.625 2.078125q0.625 0.71875 1.53125 0.71875q0.84375 0 1.65625 -0.546875q0.828125 -0.5625 1.28125 -1.609375zm-4.78125 -2.40625l5.421875 0q0.015625 -0.25 0.015625 -0.359375q0 -1.234375 -0.625 -1.890625q-0.625 -0.671875 -1.59375 -0.671875q-1.0625 0 -1.9375 0.734375q-0.859375 0.71875 -1.28125 2.1875zm8.453842 2.1875l1.609375 -0.203125q0.1875 1.40625 0.796875 2.015625q0.625 0.609375 1.640625 0.609375q1.21875 0 2.109375 -0.875q0.890625 -0.875 0.890625 -2.015625q0 -0.984375 -0.671875 -1.625q-0.65625 -0.640625 -1.78125 -0.640625q-0.125 0 -0.53125 0.046875l0.28125 -1.375q0.25 0.03125 0.46875 0.03125q1.40625 0 2.15625 -0.6875q0.765625 -0.6875 0.765625 -1.6875q0 -0.921875 -0.625 -1.546875q-0.625 -0.640625 -1.515625 -0.640625q-0.890625 0 -1.59375 0.65625q-0.703125 0.640625 -0.90625 1.8125l-1.625 -0.328125q0.40625 -1.65625 1.546875 -2.546875q1.140625 -0.90625 2.6875 -0.90625q1.640625 0 2.65625 1.0q1.015625 0.984375 1.015625 2.4375q0 1.046875 -0.546875 1.84375q-0.546875 0.78125 -1.65625 1.296875q0.78125 0.46875 1.171875 1.125q0.390625 0.65625 0.390625 1.5q0 1.796875 -1.34375 3.125q-1.34375 1.3125 -3.21875 1.3125q-1.8125 0 -2.9375 -1.015625q-1.109375 -1.015625 -1.234375 -2.71875z" fill-rule="nonzero"/><path fill="#000000" fill-opacity="0.0" d="m51.464565 81.81102l55.2441 -50.708656" fill-rule="evenodd"/><path stroke="#000000" stroke-width="1.0" stroke-linejoin="round" stroke-linecap="butt" d="m51.464565 81.81102l50.823895 -46.651344" fill-rule="evenodd"/><path fill="#000000" stroke="#000000" stroke-width="1.0" stroke-linecap="butt" d="m103.40539 36.376507l2.2262878 -4.2855797l-4.4601517 1.8519173z" fill-rule="evenodd"/><path fill="#000000" fill-opacity="0.0" d="m222.91864 54.165356l0 47.999996" fill-rule="evenodd"/><path stroke="#000000" stroke-width="1.0" stroke-linejoin="round" stroke-linecap="butt" d="m222.91864 54.165356l0 41.999996" fill-rule="evenodd"/><path fill="#000000" stroke="#000000" stroke-width="1.0" stroke-linecap="butt" d="m221.2669 96.16535l1.6517334 4.538101l1.6517334 -4.538101z" fill-rule="evenodd"/><path fill="#000000" fill-opacity="0.0" d="m43.32021 11.417323l43.464565 0l0 42.015747l-43.464565 0z" fill-rule="evenodd"/><path fill="#000000" d="m54.00771 30.52482l0 -1.859375l1.859375 0l0 1.859375l-1.859375 0zm0 7.812502l0 -1.875l1.859375 0l0 1.875l-1.859375 0zm10.886433 3.703125l0 -4.734375q-0.375 0.546875 -1.0625038 0.90625q-0.6875 0.34375 -1.46875 0.34375q-1.71875 0 -2.96875 -1.375q-1.234375 -1.375 -1.234375 -3.765625q0 -1.4687519 0.5 -2.625002q0.515625 -1.15625 1.46875 -1.75q0.96875 -0.59375 2.109375 -0.59375q1.7968788 0 2.8281288 1.515625l0 -1.296875l1.46875 0l0 13.375002l-1.640625 0zm-5.046879 -8.5625q0 1.859375 0.78125 2.796875q0.78125 0.9375 1.875 0.9375q1.046875 0 1.7968788 -0.890625q0.765625 -0.890625 0.765625 -2.703125q0 -1.9375019 -0.796875 -2.906252q-0.7968788 -0.96875 -1.8750038 -0.96875q-1.0625 0 -1.8125 0.90625q-0.734375 0.90625 -0.734375 2.828127z" fill-rule="nonzero"/><path fill="#000000" fill-opacity="0.0" d="m43.32021 101.27559l43.464565 0l0 42.015747l-43.464565 0z" fill-rule="evenodd"/><path fill="#000000" d="m54.00771 120.38309l0 -1.859375l1.859375 0l0 1.859375l-1.859375 0zm0 7.8125l0 -1.875l1.859375 0l0 1.875l-1.859375 0zm10.886433 3.703125l0 -4.734375q-0.375 0.546875 -1.0625038 0.90625q-0.6875 0.34375 -1.46875 0.34375q-1.71875 0 -2.96875 -1.375q-1.234375 -1.375 -1.234375 -3.765625q0 -1.46875 0.5 -2.625q0.515625 -1.15625 1.46875 -1.75q0.96875 -0.59375 2.109375 -0.59375q1.7968788 0 2.8281288 1.515625l0 -1.296875l1.46875 0l0 13.375l-1.640625 0zm-5.046879 -8.5625q0 1.859375 0.78125 2.796875q0.78125 0.9375 1.875 0.9375q1.046875 0 1.7968788 -0.890625q0.765625 -0.890625 0.765625 -2.703125q0 -1.9375 -0.796875 -2.90625q-0.7968788 -0.96875 -1.8750038 -0.96875q-1.0625 0 -1.8125 0.90625q-0.734375 0.90625 -0.734375 2.828125z" fill-rule="nonzero"/><path fill="#000000" fill-opacity="0.0" d="m154.70735 26.868767l43.46457 0l0 42.015747l-43.46457 0z" fill-rule="evenodd"/><path fill="#000000" d="m165.39485 45.976265l0 -1.859375l1.859375 0l0 1.859375l-1.859375 0zm0 7.8125l0 -1.875l1.859375 0l0 1.875l-1.859375 0zm4.730179 3.703125l0 -13.375l1.484375 0l0 1.25q0.53125 -0.734375 1.1875 -1.09375q0.671875 -0.375 1.625 -0.375q1.234375 0 2.171875 0.640625q0.953125 0.625 1.4375 1.796875q0.484375 1.15625 0.484375 2.546875q0 1.484375 -0.53125 2.671875q-0.53125 1.1875 -1.546875 1.828125q-1.015625 0.625 -2.140625 0.625q-0.8125 0 -1.46875 -0.34375q-0.65625 -0.34375 -1.0625 -0.875l0 4.703125l-1.640625 0zm1.484375 -8.484375q0 1.859375 0.75 2.765625q0.765625 0.890625 1.828125 0.890625q1.09375 0 1.875 -0.921875q0.78125 -0.9375 0.78125 -2.875q0 -1.84375 -0.765625 -2.765625q-0.75 -0.921875 -1.8125 -0.921875q-1.046875 0 -1.859375 0.984375q-0.796875 0.96875 -0.796875 2.84375z" fill-rule="nonzero"/><path fill="#000000" fill-opacity="0.0" d="m154.70735 125.27559l43.46457 0l0 42.015747l-43.46457 0z" fill-rule="evenodd"/><path fill="#000000" d="m165.39485 144.38309l0 -1.859375l1.859375 0l0 1.859375l-1.859375 0zm0 7.8125l0 -1.875l1.859375 0l0 1.875l-1.859375 0zm4.730179 3.703125l0 -13.375l1.484375 0l0 1.25q0.53125 -0.734375 1.1875 -1.09375q0.671875 -0.375 1.625 -0.375q1.234375 0 2.171875 0.640625q0.953125 0.625 1.4375 1.796875q0.484375 1.15625 0.484375 2.546875q0 1.484375 -0.53125 2.671875q-0.53125 1.1875 -1.546875 1.828125q-1.015625 0.625 -2.140625 0.625q-0.8125 0 -1.46875 -0.34375q-0.65625 -0.34375 -1.0625 -0.875l0 4.703125l-1.640625 0zm1.484375 -8.484375q0 1.859375 0.75 2.765625q0.765625 0.890625 1.828125 0.890625q1.09375 0 1.875 -0.921875q0.78125 -0.9375 0.78125 -2.875q0 -1.84375 -0.765625 -2.765625q-0.75 -0.921875 -1.8125 -0.921875q-1.046875 0 -1.859375 0.984375q-0.796875 0.96875 -0.796875 2.84375z" fill-rule="nonzero"/><path fill="#000000" fill-opacity="0.0" d="m225.24147 57.165356l43.464554 0l0 42.015743l-43.464554 0z" fill-rule="evenodd"/><path fill="#000000" d="m235.92897 76.27285l0 -1.859375l1.859375 0l0 1.859375l-1.859375 0zm0 7.8125l0 -1.875l1.859375 0l0 1.875l-1.859375 0zm4.714554 0l0 -9.671875l1.46875 0l0 1.46875q0.5625 -1.03125 1.03125 -1.359375q0.484375 -0.328125 1.0625 -0.328125q0.828125 0 1.6875 0.53125l-0.5625 1.515625q-0.609375 -0.359375 -1.203125 -0.359375q-0.546875 0 -0.96875 0.328125q-0.421875 0.328125 -0.609375 0.890625q-0.28125 0.875 -0.28125 1.921875l0 5.0625l-1.625 0z" fill-rule="nonzero"/><path fill="#000000" fill-opacity="0.0" d="m51.464565 81.81102l55.2441 43.46457" fill-rule="evenodd"/><path stroke="#000000" stroke-width="1.0" stroke-linejoin="round" stroke-linecap="butt" d="m51.464565 81.81102l50.528614 39.754555" fill-rule="evenodd"/><path fill="#000000" stroke="#000000" stroke-width="1.0" stroke-linecap="butt" d="m100.971855 122.86369l4.5878754 1.5079498l-2.545227 -4.104187z" fill-rule="evenodd"/><path fill="#000000" fill-opacity="0.0" d="m153.20473 31.086615l46.456696 0" fill-rule="evenodd"/><path stroke="#000000" stroke-width="1.0" stroke-linejoin="round" stroke-linecap="butt" d="m153.20473 31.086615l40.456696 0" fill-rule="evenodd"/><path fill="#000000" stroke="#000000" stroke-width="1.0" stroke-linecap="butt" d="m193.66142 32.738346l4.538086 -1.6517315l-4.538086 -1.6517334z" fill-rule="evenodd"/><path fill="#000000" fill-opacity="0.0" d="m153.20473 125.27559l46.456696 0" fill-rule="evenodd"/><path stroke="#000000" stroke-width="1.0" stroke-linejoin="round" stroke-linecap="butt" d="m153.20473 125.27559l40.456696 0" fill-rule="evenodd"/><path fill="#000000" stroke="#000000" stroke-width="1.0" stroke-linecap="butt" d="m193.66142 126.92732l4.538086 -1.6517334l-4.538086 -1.6517334z" fill-rule="evenodd"/></g></svg>