<svg version="1.1" viewBox="0.0 0.0 262.753280839895 157.20734908136484" fill="none" stroke="none" stroke-linecap="square" stroke-miterlimit="10" xmlns:xlink="http://www.w3.org/1999/xlink" xmlns="http://www.w3.org/2000/svg"><clipPath id="p.0"><path d="m0 0l262.7533 0l0 157.20735l-262.7533 0l0 -157.20735z" clip-rule="nonzero"/></clipPath><g clip-path="url(#p.0)"><path fill="#000000" fill-opacity="0.0" d="m0 0l262.7533 0l0 157.20735l-262.7533 0z" fill-rule="evenodd"/><path fill="#cfe2f3" d="m8.0 68.22572l0 0c0 -3.75148 3.041173 -6.792652 6.792651 -6.792652l29.879265 0c1.8015213 0 3.5292587 0.71565247 4.8031273 1.989521c1.2738686 1.2738724 1.989521 3.0016098 1.989521 4.803131l0 27.1706c0 3.75148 -3.041172 6.792656 -6.7926483 6.792656l-29.879265 0c-3.7514782 0 -6.792651 -3.0411758 -6.792651 -6.792656z" fill-rule="evenodd"/><path stroke="#000000" stroke-width="1.0" stroke-linejoin="round" stroke-linecap="butt" d="m8.0 68.22572l0 0c0 -3.75148 3.041173 -6.792652 6.792651 -6.792652l29.879265 0c1.8015213 0 3.5292587 0.71565247 4.8031273 1.989521c1.2738686 1.2738724 1.989521 3.0016098 1.989521 4.803131l0 27.1706c0 3.75148 -3.041172 6.792656 -6.7926483 6.792656l-29.879265 0c-3.7514782 0 -6.792651 -3.0411758 -6.792651 -6.792656z" fill-rule="evenodd"/><path fill="#000000" d="m20.677 80.91852l0 -1.859375l1.859375 0l0 1.859375l-1.859375 0zm0 7.8125l0 -1.875l1.859375 0l0 1.875l-1.859375 0zm4.730179 3.703125l0 -13.375l1.484375 0l0 1.25q0.53125 -0.734375 1.1875 -1.09375q0.671875 -0.375 1.625 -0.375q1.234375 0 2.171875 0.640625q0.9531231 0.625 1.4374981 1.796875q0.484375 1.15625 0.484375 2.546875q0 1.484375 -0.53125 2.671875q-0.53125 1.1875 -1.5468731 1.828125q-1.015625 0.625 -2.140625 0.625q-0.8125 0 -1.46875 -0.34375q-0.65625 -0.34375 -1.0625 -0.875l0 4.703125l-1.640625 0zm1.484375 -8.484375q0 1.859375 0.75 2.765625q0.765625 0.890625 1.828125 0.890625q1.09375 0 1.875 -0.921875q0.7812481 -0.9375 0.7812481 -2.875q0 -1.84375 -0.7656231 -2.765625q-0.75 -0.921875 -1.8125 -0.921875q-1.046875 0 -1.859375 0.984375q-0.796875 0.96875 -0.796875 2.84375z" fill-rule="nonzero"/><path fill="#cfe2f3" d="m106.71654 15.6955385l0 0c0 -4.2501287 3.445404 -7.6955385 7.6955338 -7.6955385l34.593178 0c2.040985 0 3.9983673 0.81077766 5.441574 2.253971c1.4431915 1.4431934 2.2539673 3.4005833 2.2539673 5.4415674l0 30.782154c0 4.250126 -3.4454193 7.6955376 -7.6955414 7.6955376l-34.593178 0c-4.2501297 0 -7.6955338 -3.4454117 -7.6955338 -7.6955376z" fill-rule="evenodd"/><path stroke="#000000" stroke-width="1.0" stroke-linejoin="round" stroke-linecap="butt" d="m106.71654 15.6955385l0 0c0 -4.2501287 3.445404 -7.6955385 7.6955338 -7.6955385l34.593178 0c2.040985 0 3.9983673 0.81077766 5.441574 2.253971c1.4431915 1.4431934 2.2539673 3.4005833 2.2539673 5.4415674l0 30.782154c0 4.250126 -3.4454193 7.6955376 -7.6955414 7.6955376l-34.593178 0c-4.2501297 0 -7.6955338 -3.4454117 -7.6955338 -7.6955376z" fill-rule="evenodd"/><path fill="#000000" d="m125.68923 34.72536l1.609375 0.15625q-0.34375 1.1875 -1.59375 2.265625q-1.234375 1.078125 -2.96875 1.078125q-1.0625 0 -1.96875 -0.5q-0.890625 -0.5 -1.359375 -1.4375q-0.46875 -0.953125 -0.46875 -2.15625q0 -1.59375 0.734375 -3.078123q0.734375 -1.484375 1.890625 -2.203125q1.171875 -0.734375 2.53125 -0.734375q1.734375 0 2.765625 1.078125q1.03125 1.0625 1.03125 2.921873q0 0.71875 -0.125 1.46875l-7.125 0q-0.046875 0.28125 -0.046875 0.5q0 1.359375 0.625 2.078125q0.625 0.71875 1.53125 0.71875q0.84375 0 1.65625 -0.546875q0.828125 -0.5625 1.28125 -1.609375zm-4.78125 -2.40625l5.421875 0q0.015625 -0.25 0.015625 -0.3593731q0 -1.234375 -0.625 -1.890625q-0.625 -0.671875 -1.59375 -0.671875q-1.0625 0 -1.9375 0.734375q-0.859375 0.71875 -1.28125 2.187498zm8.766335 1.3125q0 -1.7031231 0.5 -3.453123q0.5 -1.75 1.125 -2.796875q0.625 -1.046875 1.28125 -1.640625q0.671875 -0.59375 1.3125 -0.859375q0.640625 -0.28125 1.421875 -0.28125q1.53125 0 2.546875 1.140625q1.03125 1.140625 1.03125 3.28125q0 2.21875 -0.703125 4.390623q-0.84375 2.5625 -2.34375 3.84375q-1.140625 0.984375 -2.609375 0.984375q-1.5 0 -2.53125 -1.171875q-1.03125 -1.1875 -1.03125 -3.4375zm1.59375 0.40625q0 1.234375 0.40625 1.921875q0.546875 0.96875 1.640625 0.96875q0.96875 0 1.75 -0.875q1.125 -1.21875 1.6875 -3.5625q0.578125 -2.359373 0.578125 -3.859373q0 -1.4375 -0.5625 -2.078125q-0.546875 -0.640625 -1.4375 -0.640625q-0.65625 0 -1.234375 0.34375q-0.5625 0.328125 -1.078125 1.15625q-0.75 1.15625 -1.296875 3.46875q-0.453125 1.9531231 -0.453125 3.156248z" fill-rule="nonzero"/><path fill="#cfe2f3" d="m106.71654 109.884514l0 0c0 -4.2501297 3.445404 -7.6955338 7.6955338 -7.6955338l34.593178 0c2.040985 0 3.9983673 0.81077576 5.441574 2.2539673c1.4431915 1.4431915 2.2539673 3.4005814 2.2539673 5.4415665l0 30.782158c0 4.250122 -3.4454193 7.695526 -7.6955414 7.695526l-34.593178 0c-4.2501297 0 -7.6955338 -3.445404 -7.6955338 -7.695526z" fill-rule="evenodd"/><path stroke="#000000" stroke-width="1.0" stroke-linejoin="round" stroke-linecap="butt" d="m106.71654 109.884514l0 0c0 -4.2501297 3.445404 -7.6955338 7.6955338 -7.6955338l34.593178 0c2.040985 0 3.9983673 0.81077576 5.441574 2.2539673c1.4431915 1.4431915 2.2539673 3.4005814 2.2539673 5.4415665l0 30.782158c0 4.250122 -3.4454193 7.695526 -7.6955414 7.695526l-34.593178 0c-4.2501297 0 -7.6955338 -3.445404 -7.6955338 -7.695526z" fill-rule="evenodd"/><path fill="#000000" d="m125.68923 128.91434l1.609375 0.15625q-0.34375 1.1875 -1.59375 2.265625q-1.234375 1.078125 -2.96875 1.078125q-1.0625 0 -1.96875 -0.5q-0.890625 -0.5 -1.359375 -1.4375q-0.46875 -0.953125 -0.46875 -2.15625q0 -1.59375 0.734375 -3.078125q0.734375 -1.484375 1.890625 -2.203125q1.171875 -0.734375 2.53125 -0.734375q1.734375 0 2.765625 1.078125q1.03125 1.0625 1.03125 2.921875q0 0.71875 -0.125 1.46875l-7.125 0q-0.046875 0.28125 -0.046875 0.5q0 1.359375 0.625 2.078125q0.625 0.71875 1.53125 0.71875q0.84375 0 1.65625 -0.546875q0.828125 -0.5625 1.28125 -1.609375zm-4.78125 -2.40625l5.421875 0q0.015625 -0.25 0.015625 -0.359375q0 -1.234375 -0.625 -1.890625q-0.625 -0.671875 -1.59375 -0.671875q-1.0625 0 -1.9375 0.734375q-0.859375 0.71875 -1.28125 2.1875zm11.922585 5.6875l2.125 -10.078125q-1.375 1.0625 -3.84375 1.71875l0.296875 -1.5q1.234375 -0.484375 2.4375 -1.28125q1.203125 -0.796875 1.796875 -1.390625q0.359375 -0.359375 0.6875 -0.875l0.96875 0l-2.796875 13.40625l-1.671875 0z" fill-rule="nonzero"/><path fill="#cfe2f3" d="m212.94226 68.29396l0 0c0 -3.7891617 3.0717163 -6.8608894 6.8608856 -6.8608894l27.443573 0l0 0c1.8196259 0 3.5647125 0.72284317 4.8513794 2.00951c1.2866669 1.2866669 2.0095062 3.0317612 2.0095062 4.8513794l0 32.451447c0 3.7891693 -3.0717163 6.8608932 -6.8608856 6.8608932l-27.443573 0c-3.7891693 0 -6.8608856 -3.071724 -6.8608856 -6.8608932z" fill-rule="evenodd"/><path stroke="#000000" stroke-width="1.0" stroke-linejoin="round" stroke-linecap="butt" d="m212.94226 68.29396l0 0c0 -3.7891617 3.0717163 -6.8608894 6.8608856 -6.8608894l27.443573 0l0 0c1.8196259 0 3.5647125 0.72284317 4.8513794 2.00951c1.2866669 1.2866669 2.0095062 3.0317612 2.0095062 4.8513794l0 32.451447c0 3.7891693 -3.0717163 6.8608932 -6.8608856 6.8608932l-27.443573 0c-3.7891693 0 -6.8608856 -3.071724 -6.8608856 -6.8608932z" fill-rule="evenodd"/><path fill="#000000" d="m225.63924 83.62718l0 -1.859375l1.859375 0l0 1.859375l-1.859375 0zm0 7.8125l0 -1.875l1.859375 0l0 1.875l-1.859375 0zm11.058304 0l0 -1.421875q-1.125 1.640625 -3.0625 1.640625q-0.859375 0 -1.609375 -0.328125q-0.734375 -0.328125 -1.09375 -0.828125q-0.359375 -0.5 -0.5 -1.21875q-0.109375 -0.46875 -0.109375 -1.53125l0 -5.984375l1.640625 0l0 5.359375q0 1.28125 0.109375 1.734375q0.15625 0.640625 0.65625 1.015625q0.5 0.375 1.234375 0.375q0.734375 0 1.375 -0.375q0.65625 -0.390625 0.921875 -1.03125q0.265625 -0.65625 0.265625 -1.890625l0 -5.1875l1.640625 0l0 9.671875l-1.46875 0z" fill-rule="nonzero"/><path fill="#000000" fill-opacity="0.0" d="m51.32021 19.417322l43.464565 0l0 42.015747l-43.464565 0z" fill-rule="evenodd"/><path fill="#000000" d="m62.00771 38.524822l0 -1.859375l1.859375 0l0 1.859375l-1.859375 0zm0 7.8125l0 -1.875l1.859375 0l0 1.875l-1.859375 0zm10.886433 3.703125l0 -4.734375q-0.375 0.546875 -1.0625 0.90625q-0.6875 0.34375 -1.46875 0.34375q-1.71875 0 -2.96875 -1.375q-1.234375 -1.375 -1.234375 -3.765625q0 -1.46875 0.5 -2.625q0.515625 -1.15625 1.46875 -1.75q0.96875 -0.59375 2.109375 -0.59375q1.796875 0 2.828125 1.515625l0 -1.296875l1.46875 0l0 13.375l-1.640625 0zm-5.046875 -8.5625q0 1.859375 0.78125 2.796875q0.78125 0.9375 1.875 0.9375q1.046875 0 1.796875 -0.890625q0.765625 -0.890625 0.765625 -2.703125q0 -1.9375 -0.796875 -2.90625q-0.796875 -0.96875 -1.875 -0.96875q-1.0625 0 -1.8125 0.90625q-0.734375 0.90625 -0.734375 2.828125z" fill-rule="nonzero"/><path fill="#000000" fill-opacity="0.0" d="m51.32021 101.27559l43.464565 0l0 42.015747l-43.464565 0z" fill-rule="evenodd"/><path fill="#000000" d="m62.00771 120.38309l0 -1.859375l1.859375 0l0 1.859375l-1.859375 0zm0 7.8125l0 -1.875l1.859375 0l0 1.875l-1.859375 0zm4.7145576 0l0 -9.671875l1.46875 0l0 1.46875q0.5625 -1.03125 1.03125 -1.359375q0.484375 -0.328125 1.0625 -0.328125q0.828125 0 1.6875 0.53125l-0.5625 1.515625q-0.609375 -0.359375 -1.203125 -0.359375q-0.546875 0 -0.96875 0.328125q-0.421875 0.328125 -0.609375 0.890625q-0.28125 0.875 -0.28125 1.921875l0 5.0625l-1.625 0z" fill-rule="nonzero"/><path fill="#000000" fill-opacity="0.0" d="m178.86876 19.417322l43.46457 0l0 42.015747l-43.46457 0z" fill-rule="evenodd"/><path fill="#000000" d="m189.55626 38.524822l0 -1.859375l1.859375 0l0 1.859375l-1.859375 0zm0 7.8125l0 -1.875l1.859375 0l0 1.875l-1.859375 0zm4.073929 -2.890625l1.625 -0.25q0.125 0.96875 0.75 1.5q0.625 0.515625 1.75 0.515625q1.125 0 1.671875 -0.453125q0.546875 -0.46875 0.546875 -1.09375q0 -0.546875 -0.484375 -0.875q-0.328125 -0.21875 -1.671875 -0.546875q-1.8125 -0.46875 -2.515625 -0.796875q-0.6875 -0.328125 -1.046875 -0.90625q-0.359375 -0.59375 -0.359375 -1.3125q0 -0.640625 0.296875 -1.1875q0.296875 -0.5625 0.8125 -0.921875q0.375 -0.28125 1.03125 -0.46875q0.671875 -0.203125 1.421875 -0.203125q1.140625 0 2.0 0.328125q0.859375 0.328125 1.265625 0.890625q0.421875 0.5625 0.578125 1.5l-1.609375 0.21875q-0.109375 -0.75 -0.640625 -1.171875q-0.515625 -0.421875 -1.46875 -0.421875q-1.140625 0 -1.625 0.375q-0.46875 0.375 -0.46875 0.875q0 0.3125 0.1875 0.578125q0.203125 0.265625 0.640625 0.4375q0.234375 0.09375 1.4375 0.421875q1.75 0.453125 2.4375 0.75q0.6875 0.296875 1.078125 0.859375q0.390625 0.5625 0.390625 1.40625q0 0.828125 -0.484375 1.546875q-0.46875 0.71875 -1.375 1.125q-0.90625 0.390625 -2.046875 0.390625q-1.875 0 -2.875 -0.78125q-0.984375 -0.78125 -1.25 -2.328125z" fill-rule="nonzero"/><path fill="#000000" fill-opacity="0.0" d="m156.70079 31.086615l56.25197 53.448814" fill-rule="evenodd"/><path stroke="#000000" stroke-width="1.0" stroke-linejoin="round" stroke-linecap="butt" d="m156.70079 31.086615l51.90233 49.31594" fill-rule="evenodd"/><path fill="#000000" stroke="#000000" stroke-width="1.0" stroke-linecap="butt" d="m207.4654 81.59996l4.4275665 1.9284973l-2.1520996 -4.323311z" fill-rule="evenodd"/><path fill="#000000" fill-opacity="0.0" d="m156.70079 125.27559l56.25197 -40.755905" fill-rule="evenodd"/><path stroke="#000000" stroke-width="1.0" stroke-linejoin="round" stroke-linecap="butt" d="m156.70079 125.27559l51.393204 -37.23561" fill-rule="evenodd"/><path fill="#000000" stroke="#000000" stroke-width="1.0" stroke-linecap="butt" d="m209.0631 89.37753l2.7058258 -4.0001297l-4.6440277 1.3250122z" fill-rule="evenodd"/><path fill="#000000" fill-opacity="0.0" d="m178.86876 96.761154l43.46457 0l0 42.015747l-43.46457 0z" fill-rule="evenodd"/><path fill="#000000" d="m189.55626 115.86865l0 -1.859375l1.859375 0l0 1.859375l-1.859375 0zm0 7.8125l0 -1.875l1.859375 0l0 1.875l-1.859375 0zm8.308304 -1.46875l0.234375 1.453125q-0.6875 0.140625 -1.234375 0.140625q-0.890625 0 -1.390625 -0.28125q-0.484375 -0.28125 -0.6875 -0.734375q-0.203125 -0.46875 -0.203125 -1.9375l0 -5.578125l-1.203125 0l0 -1.265625l1.203125 0l0 -2.390625l1.625 -0.984375l0 3.375l1.65625 0l0 1.265625l-1.65625 0l0 5.671875q0 0.6875 0.078125 0.890625q0.09375 0.203125 0.28125 0.328125q0.203125 0.109375 0.578125 0.109375q0.265625 0 0.71875 -0.0625z" fill-rule="nonzero"/><path fill="#000000" fill-opacity="0.0" d="m51.464565 81.81102l55.2441 -50.708656" fill-rule="evenodd"/><path stroke="#000000" stroke-width="1.0" stroke-linejoin="round" stroke-linecap="butt" d="m51.464565 81.81102l50.823895 -46.651344" fill-rule="evenodd"/><path fill="#000000" stroke="#000000" stroke-width="1.0" stroke-linecap="butt" d="m103.40539 36.376507l2.2262878 -4.2855797l-4.4601517 1.8519173z" fill-rule="evenodd"/><path fill="#000000" fill-opacity="0.0" d="m51.464565 81.81102l55.2441 43.46457" fill-rule="evenodd"/><path stroke="#000000" stroke-width="1.0" stroke-linejoin="round" stroke-linecap="butt" d="m51.464565 81.81102l50.528614 39.754555" fill-rule="evenodd"/><path fill="#000000" stroke="#000000" stroke-width="1.0" stroke-linecap="butt" d="m100.971855 122.86369l4.5878754 1.5079498l-2.545227 -4.104187z" fill-rule="evenodd"/></g></svg>