<svg version="1.1" viewBox="0.0 0.0 296.0 215.0" fill="none" stroke="none" stroke-linecap="square" stroke-miterlimit="10" xmlns:xlink="http://www.w3.org/1999/xlink" xmlns="http://www.w3.org/2000/svg"><clipPath id="p.0"><path d="m0 0l296.0 0l0 215.0l-296.0 0l0 -215.0z" clip-rule="nonzero"/></clipPath><g clip-path="url(#p.0)"><path fill="#000000" fill-opacity="0.0" d="m0 0l296.0 0l0 215.0l-296.0 0z" fill-rule="evenodd"/><path fill="#d9d9d9" d="m1.0 141.33624l0 0c0 -7.917694 6.4185553 -14.336243 14.336245 -14.336243l264.3354 0c3.8022156 0 7.4487 1.5104218 10.137268 4.19899c2.688568 2.688568 4.1989746 6.3350525 4.1989746 10.137253l0 57.34326c0 7.917694 -6.4185486 14.336243 -14.336243 14.336243l-264.3354 0c-7.9176893 0 -14.336245 -6.4185486 -14.336245 -14.336243z" fill-rule="evenodd"/><path stroke="#000000" stroke-width="1.0" stroke-linejoin="round" stroke-linecap="butt" d="m1.0 141.33624l0 0c0 -7.917694 6.4185553 -14.336243 14.336245 -14.336243l264.3354 0c3.8022156 0 7.4487 1.5104218 10.137268 4.19899c2.688568 2.688568 4.1989746 6.3350525 4.1989746 10.137253l0 57.34326c0 7.917694 -6.4185486 14.336243 -14.336243 14.336243l-264.3354 0c-7.9176893 0 -14.336245 -6.4185486 -14.336245 -14.336243z" fill-rule="evenodd"/><path fill="#000000" d="m260.58875 196.6118l1.671875 0.15625q-0.03125 0.5625 0.125 0.84375q0.15625 0.28125 0.5 0.4375q0.4375 0.203125 1.15625 0.203125q1.484375 0 2.140625 -0.78125q0.4375 -0.515625 0.796875 -2.25l0.171875 -0.78125q-1.296875 1.296875 -2.734375 1.296875q-1.46875 0 -2.46875 -1.078125q-0.984375 -1.078125 -0.984375 -3.0625q0 -1.625 0.78125 -2.984375q0.78125 -1.375 1.859375 -2.0625q1.078125 -0.703125 2.203125 -0.703125q1.90625 0 2.9375 1.796875l0.328125 -1.578125l1.515625 0l-1.953125 9.328125q-0.3125 1.546875 -0.84375 2.40625q-0.515625 0.859375 -1.4375 1.328125q-0.921875 0.484375 -2.140625 0.484375q-1.15625 0 -2.0 -0.3125q-0.84375 -0.296875 -1.265625 -0.875q-0.40625 -0.578125 -0.40625 -1.328125q0 -0.21875 0.046875 -0.484375zm2.0625 -5.15625q0 1.0 0.1875 1.5q0.265625 0.6875 0.765625 1.0625q0.515625 0.375 1.140625 0.375q0.8125 0 1.609375 -0.5625q0.796875 -0.578125 1.296875 -1.765625q0.5 -1.203125 0.5 -2.28125q0 -1.203125 -0.671875 -1.90625q-0.65625 -0.703125 -1.625 -0.703125q-0.609375 0 -1.171875 0.328125q-0.5625 0.3125 -1.046875 0.984375q-0.484375 0.65625 -0.734375 1.578125q-0.25 0.921875 -0.25 1.390625zm9.110077 -0.09375q0 -1.703125 0.5 -3.453125q0.5 -1.75 1.125 -2.796875q0.625 -1.046875 1.28125 -1.640625q0.671875 -0.59375 1.3125 -0.859375q0.640625 -0.28125 1.421875 -0.28125q1.53125 0 2.546875 1.140625q1.03125 1.140625 1.03125 3.28125q0 2.21875 -0.703125 4.390625q-0.84375 2.5625 -2.34375 3.84375q-1.140625 0.984375 -2.609375 0.984375q-1.5 0 -2.53125 -1.171875q-1.03125 -1.1875 -1.03125 -3.4375zm1.59375 0.40625q0 1.234375 0.40625 1.921875q0.546875 0.96875 1.640625 0.96875q0.96875 0 1.75 -0.875q1.125 -1.21875 1.6875 -3.5625q0.578125 -2.359375 0.578125 -3.859375q0 -1.4375 -0.5625 -2.078125q-0.546875 -0.640625 -1.4375 -0.640625q-0.65625 0 -1.234375 0.34375q-0.5625 0.328125 -1.078125 1.15625q-0.75 1.15625 -1.296875 3.46875q-0.453125 1.953125 -0.453125 3.15625z" fill-rule="nonzero"/><path fill="#cfe2f3" d="m17.36483 22.905512l0 0c0 -3.7514782 3.041172 -6.79265 6.79265 -6.79265l31.800524 0c1.8015251 0 3.5292625 0.71565056 4.803131 1.989521c1.2738686 1.2738686 1.989521 3.001606 1.989521 4.803129l0 27.170603c0 3.75148 -3.041172 6.792652 -6.792652 6.792652l-31.800524 0c-3.7514782 0 -6.79265 -3.041172 -6.79265 -6.792652z" fill-rule="evenodd"/><path stroke="#000000" stroke-width="1.0" stroke-linejoin="round" stroke-linecap="butt" d="m17.36483 22.905512l0 0c0 -3.7514782 3.041172 -6.79265 6.79265 -6.79265l31.800524 0c1.8015251 0 3.5292625 0.71565056 4.803131 1.989521c1.2738686 1.2738686 1.989521 3.001606 1.989521 4.803129l0 27.170603c0 3.75148 -3.041172 6.792652 -6.792652 6.792652l-31.800524 0c-3.7514782 0 -6.79265 -3.041172 -6.79265 -6.792652z" fill-rule="evenodd"/><path fill="#000000" d="m36.07308 40.129562l1.609375 0.15625q-0.34375 1.1875 -1.59375 2.265625q-1.234375 1.078125 -2.96875 1.078125q-1.0625 0 -1.96875 -0.5q-0.890625 -0.5 -1.359375 -1.4375q-0.46875 -0.953125 -0.46875 -2.15625q0 -1.59375 0.734375 -3.078125q0.734375 -1.484375 1.890625 -2.203125q1.171875 -0.734375 2.53125 -0.734375q1.734375 0 2.765625 1.078125q1.03125 1.0625 1.03125 2.921875q0 0.71875 -0.125 1.46875l-7.125 0q-0.046875 0.28125 -0.046875 0.5q0 1.359375 0.625 2.078125q0.625 0.71875 1.53125 0.71875q0.84375 0 1.65625 -0.546875q0.828125 -0.5625 1.28125 -1.609375zm-4.78125 -2.40625l5.421875 0q0.015625 -0.25 0.015625 -0.359375q0 -1.234375 -0.625 -1.890625q-0.625 -0.671875 -1.59375 -0.671875q-1.0625 0 -1.9375 0.734375q-0.859375 0.71875 -1.28125 2.1875zm8.766342 1.3125q0 -1.703125 0.5 -3.453125q0.5 -1.75 1.125 -2.796875q0.625 -1.0468769 1.28125 -1.6406269q0.671875 -0.59375 1.3125 -0.859375q0.640625 -0.28125 1.421875 -0.28125q1.53125 0 2.546875 1.140625q1.03125 1.1406269 1.03125 3.281252q0 2.21875 -0.703125 4.390625q-0.84375 2.5625 -2.34375 3.84375q-1.140625 0.984375 -2.609375 0.984375q-1.5 0 -2.53125 -1.171875q-1.03125 -1.1875 -1.03125 -3.4375zm1.59375 0.40625q0 1.234375 0.40625 1.921875q0.546875 0.96875 1.640625 0.96875q0.96875 0 1.75 -0.875q1.125 -1.21875 1.6875 -3.5625q0.578125 -2.359375 0.578125 -3.859375q0 -1.4375 -0.5625 -2.078127q-0.546875 -0.640625 -1.4375 -0.640625q-0.65625 0 -1.234375 0.34375q-0.5625 0.328125 -1.078125 1.1562519q-0.75 1.15625 -1.296875 3.46875q-0.453125 1.953125 -0.453125 3.15625z" fill-rule="nonzero"/><path fill="#cfe2f3" d="m114.71654 22.485565l0 0c0 -3.867443 3.1351776 -7.0026255 7.0026245 -7.0026255l35.979004 0c1.8572083 0 3.6383514 0.73777485 4.951599 2.0510206c1.3132477 1.3132477 2.0510254 3.0943928 2.0510254 4.951605l0 28.010498c0 3.867443 -3.1351776 7.0026245 -7.0026245 7.0026245l-35.979004 0c-3.867447 0 -7.0026245 -3.1351814 -7.0026245 -7.0026245z" fill-rule="evenodd"/><path stroke="#000000" stroke-width="1.0" stroke-linejoin="round" stroke-linecap="butt" d="m114.71654 22.485565l0 0c0 -3.867443 3.1351776 -7.0026255 7.0026245 -7.0026255l35.979004 0c1.8572083 0 3.6383514 0.73777485 4.951599 2.0510206c1.3132477 1.3132477 2.0510254 3.0943928 2.0510254 4.951605l0 28.010498c0 3.867443 -3.1351776 7.0026245 -7.0026245 7.0026245l-35.979004 0c-3.867447 0 -7.0026245 -3.1351814 -7.0026245 -7.0026245z" fill-rule="evenodd"/><path fill="#000000" d="m133.48628 40.129562l1.609375 0.15625q-0.34375 1.1875 -1.59375 2.265625q-1.234375 1.078125 -2.96875 1.078125q-1.0625 0 -1.96875 -0.5q-0.890625 -0.5 -1.359375 -1.4375q-0.46875 -0.953125 -0.46875 -2.15625q0 -1.59375 0.734375 -3.078125q0.734375 -1.484375 1.890625 -2.203125q1.171875 -0.734375 2.53125 -0.734375q1.734375 0 2.765625 1.078125q1.03125 1.0625 1.03125 2.921875q0 0.71875 -0.125 1.46875l-7.125 0q-0.046875 0.28125 -0.046875 0.5q0 1.359375 0.625 2.078125q0.625 0.71875 1.53125 0.71875q0.84375 0 1.65625 -0.546875q0.828125 -0.5625 1.28125 -1.609375zm-4.78125 -2.40625l5.421875 0q0.015625 -0.25 0.015625 -0.359375q0 -1.234375 -0.625 -1.890625q-0.625 -0.671875 -1.59375 -0.671875q-1.0625 0 -1.9375 0.734375q-0.859375 0.71875 -1.28125 2.1875zm11.922592 5.6875l2.125 -10.078125q-1.375 1.0625 -3.84375 1.71875l0.296875 -1.5q1.234375 -0.484375 2.4375 -1.28125q1.203125 -0.7968769 1.796875 -1.3906269q0.359375 -0.359375 0.6875 -0.875l0.96875 0l-2.796875 13.406252l-1.671875 0z" fill-rule="nonzero"/><path fill="#000000" fill-opacity="0.0" d="m67.74147 49.0l49.984253 0l0 42.015747l-49.984253 0z" fill-rule="evenodd"/><path fill="#000000" d="m78.42897 68.1075l0 -1.859375l1.859375 0l0 1.859375l-1.859375 0zm0 7.8125l0 -1.875l1.859375 0l0 1.875l-1.859375 0zm4.730179 3.703125l0 -13.375l1.484375 0l0 1.25q0.53125 -0.734375 1.1875 -1.09375q0.671875 -0.375 1.625 -0.375q1.234375 0 2.171875 0.640625q0.953125 0.625 1.4375 1.796875q0.484375 1.15625 0.484375 2.546875q0 1.484375 -0.53125 2.671875q-0.53125 1.1875 -1.546875 1.828125q-1.015625 0.625 -2.140625 0.625q-0.8125 0 -1.46875 -0.34375q-0.65625 -0.34375 -1.0625 -0.875l0 4.703125l-1.640625 0zm1.484375 -8.484375q0 1.859375 0.75 2.765625q0.765625 0.890625 1.828125 0.890625q1.09375 0 1.875 -0.921875q0.78125 -0.9375 0.78125 -2.875q0 -1.84375 -0.765625 -2.765625q-0.75 -0.921875 -1.8125 -0.921875q-1.046875 0 -1.859375 0.984375q-0.796875 0.96875 -0.796875 2.84375zm8.438217 1.25l1.640625 -0.21875q0.28125 1.40625 0.953125 2.015625q0.6875 0.609375 1.65625 0.609375q1.15625 0 1.953125 -0.796875q0.796875 -0.796875 0.796875 -1.984375q0 -1.125 -0.734375 -1.859375q-0.734375 -0.734375 -1.875 -0.734375q-0.46875 0 -1.15625 0.171875l0.1875 -1.4375q0.15625 0.015625 0.265625 0.015625q1.046875 0 1.875 -0.546875q0.84375 -0.546875 0.84375 -1.671875q0 -0.90625 -0.609375 -1.5q-0.609375 -0.59375 -1.578125 -0.59375q-0.953125 0 -1.59375 0.609375q-0.640625 0.59375 -0.8125 1.796875l-1.640625 -0.296875q0.296875 -1.640625 1.359375 -2.546875q1.0625 -0.90625 2.65625 -0.90625q1.09375 0 2.0 0.46875q0.921875 0.46875 1.40625 1.28125q0.5 0.8125 0.5 1.71875q0 0.859375 -0.46875 1.578125q-0.46875 0.703125 -1.375 1.125q1.1875 0.28125 1.84375 1.140625q0.65625 0.859375 0.65625 2.15625q0 1.734375 -1.28125 2.953125q-1.265625 1.21875 -3.21875 1.21875q-1.765625 0 -2.921875 -1.046875q-1.15625 -1.046875 -1.328125 -2.71875z" fill-rule="nonzero"/><path fill="#000000" fill-opacity="0.0" d="m164.70079 36.490814l41.66928 0" fill-rule="evenodd"/><path stroke="#000000" stroke-width="1.0" stroke-linejoin="round" stroke-linecap="butt" d="m164.70079 36.490814l35.66928 0" fill-rule="evenodd"/><path fill="#000000" stroke="#000000" stroke-width="1.0" stroke-linecap="butt" d="m200.37007 38.142548l4.538101 -1.6517334l-4.538101 -1.6517334z" fill-rule="evenodd"/><path fill="#000000" fill-opacity="0.0" d="m62.750656 36.490814l51.968506 0" fill-rule="evenodd"/><path stroke="#000000" stroke-width="1.0" stroke-linejoin="round" stroke-linecap="butt" d="m62.750656 36.490814l45.968506 0" fill-rule="evenodd"/><path fill="#000000" stroke="#000000" stroke-width="1.0" stroke-linecap="butt" d="m108.71916 38.142548l4.5380936 -1.6517334l-4.5380936 -1.6517334z" fill-rule="evenodd"/><path fill="#000000" fill-opacity="0.0" d="m206.37796 15.48294l70.33069 0l0 42.015747l-70.33069 0z" fill-rule="evenodd"/><path fill="#000000" d="m216.69046 33.77794l-0.453125 -2.546877l0 -2.1875l1.859375 0l0 2.1875l-0.40625 2.546877l-1.0 0zm3.015625 0l-0.453125 -2.546877l0 -2.1875l1.875 0l0 2.1875l-0.4375 2.546877l-0.984375 0zm3.8257294 8.625l0 -13.359377l9.015625 0l0 1.578125l-7.25 0l0 4.140627l6.265625 0l0 1.578125l-6.265625 0l0 6.0625l-1.765625 0zm10.489731 -4.84375q0 -2.6875 1.484375 -3.96875q1.25 -1.078125 3.046875 -1.078125q2.0 0 3.265625 1.3125q1.265625 1.296875 1.265625 3.609375q0 1.859375 -0.5625 2.9375q-0.5625 1.0625 -1.640625 1.65625q-1.0625 0.59375 -2.328125 0.59375q-2.03125 0 -3.28125 -1.296875q-1.25 -1.3125 -1.25 -3.765625zm1.6875 0q0 1.859375 0.796875 2.796875q0.8125 0.921875 2.046875 0.921875q1.21875 0 2.03125 -0.921875q0.8125 -0.9375 0.8125 -2.84375q0 -1.796875 -0.8125 -2.71875q-0.8125 -0.921875 -2.03125 -0.921875q-1.234375 0 -2.046875 0.921875q-0.796875 0.90625 -0.796875 2.765625zm8.688217 0q0 -2.6875 1.484375 -3.96875q1.25 -1.078125 3.046875 -1.078125q2.0 0 3.265625 1.3125q1.265625 1.296875 1.265625 3.609375q0 1.859375 -0.5625 2.9375q-0.5625 1.0625 -1.640625 1.65625q-1.0625 0.59375 -2.328125 0.59375q-2.03125 0 -3.28125 -1.296875q-1.25 -1.3125 -1.25 -3.765625zm1.6875 0q0 1.859375 0.796875 2.796875q0.8125 0.921875 2.046875 0.921875q1.21875 0 2.03125 -0.921875q0.8125 -0.9375 0.8125 -2.84375q0 -1.796875 -0.8125 -2.71875q-0.8125 -0.921875 -2.03125 -0.921875q-1.234375 0 -2.046875 0.921875q-0.796875 0.90625 -0.796875 2.765625zm9.375717 -3.78125l-0.453125 -2.546877l0 -2.1875l1.859375 0l0 2.1875l-0.40625 2.546877l-1.0 0zm3.015625 0l-0.453125 -2.546877l0 -2.1875l1.875 0l0 2.1875l-0.4375 2.546877l-0.984375 0z" fill-rule="nonzero"/><path fill="#000000" fill-opacity="0.0" d="m167.59973 -0.9107612l49.984253 0l0 42.01575l-49.984253 0z" fill-rule="evenodd"/><path fill="#000000" d="m178.28723 18.196737l0 -1.859375l1.859375 0l0 1.859375l-1.859375 0zm0 7.8125l0 -1.875l1.859375 0l0 1.875l-1.859375 0zm4.730179 3.703125l0 -13.375l1.484375 0l0 1.25q0.53125 -0.734375 1.1875 -1.09375q0.671875 -0.375 1.625 -0.375q1.234375 0 2.171875 0.640625q0.953125 0.625 1.4375 1.796875q0.484375 1.15625 0.484375 2.546875q0 1.484375 -0.53125 2.671875q-0.53125 1.1875 -1.546875 1.828125q-1.015625 0.625 -2.140625 0.625q-0.8125 0 -1.46875 -0.34375q-0.65625 -0.34375 -1.0625 -0.875l0 4.703125l-1.640625 0zm1.484375 -8.484375q0 1.859375 0.75 2.765625q0.765625 0.890625 1.828125 0.890625q1.09375 0 1.875 -0.921875q0.78125 -0.9375 0.78125 -2.875q0 -1.84375 -0.765625 -2.765625q-0.75 -0.921875 -1.8125 -0.921875q-1.046875 0 -1.859375 0.984375q-0.796875 0.96875 -0.796875 2.84375zm17.047592 3.203125l0 1.578125l-8.828125 0q-0.015625 -0.59375 0.1875 -1.140625q0.34375 -0.90625 1.078125 -1.78125q0.75 -0.875 2.15625 -2.015625q2.171875 -1.78125 2.9375 -2.828125q0.765625 -1.046875 0.765625 -1.96875q0 -0.984375 -0.703125 -1.640625q-0.6875 -0.671875 -1.8125 -0.671875q-1.1875 0 -1.90625 0.71875q-0.703125 0.703125 -0.703125 1.953125l-1.6875 -0.171875q0.171875 -1.890625 1.296875 -2.875q1.140625 -0.984375 3.03125 -0.984375q1.921875 0 3.046875 1.0625q1.125 1.0625 1.125 2.640625q0 0.796875 -0.328125 1.578125q-0.328125 0.78125 -1.09375 1.640625q-0.75 0.84375 -2.53125 2.34375q-1.46875 1.234375 -1.890625 1.6875q-0.421875 0.4375 -0.6875 0.875l6.546875 0z" fill-rule="nonzero"/><path fill="#cfe2f3" d="m16.0 152.2231l0 0c0 -3.75148 3.041174 -6.7926483 6.79265 -6.7926483l31.800524 0c1.8015251 0 3.5292625 0.71565247 4.803131 1.9895172c1.2738686 1.2738647 1.989521 3.0016022 1.989521 4.803131l0 27.170609c0 3.7514648 -3.041172 6.7926483 -6.792652 6.7926483l-31.800524 0c-3.7514763 0 -6.79265 -3.0411835 -6.79265 -6.7926483z" fill-rule="evenodd"/><path stroke="#000000" stroke-width="1.0" stroke-linejoin="round" stroke-linecap="butt" d="m16.0 152.2231l0 0c0 -3.75148 3.041174 -6.7926483 6.79265 -6.7926483l31.800524 0c1.8015251 0 3.5292625 0.71565247 4.803131 1.9895172c1.2738686 1.2738647 1.989521 3.0016022 1.989521 4.803131l0 27.170609c0 3.7514648 -3.041172 6.7926483 -6.792652 6.7926483l-31.800524 0c-3.7514763 0 -6.79265 -3.0411835 -6.79265 -6.7926483z" fill-rule="evenodd"/><path fill="#000000" d="m34.70825 169.44714l1.609375 0.15625q-0.34375 1.1875 -1.59375 2.265625q-1.234375 1.078125 -2.968748 1.078125q-1.0625 0 -1.96875 -0.5q-0.890625 -0.5 -1.359375 -1.4375q-0.46875 -0.953125 -0.46875 -2.15625q0 -1.59375 0.734375 -3.078125q0.734375 -1.484375 1.890625 -2.203125q1.171875 -0.734375 2.531248 -0.734375q1.734375 0 2.765625 1.078125q1.03125 1.0625 1.03125 2.921875q0 0.71875 -0.125 1.46875l-7.124998 0q-0.046875 0.28125 -0.046875 0.5q0 1.359375 0.625 2.078125q0.625 0.71875 1.53125 0.71875q0.8437481 0 1.6562481 -0.546875q0.828125 -0.5625 1.28125 -1.609375zm-4.781248 -2.40625l5.421873 0q0.015625 -0.25 0.015625 -0.359375q0 -1.234375 -0.625 -1.890625q-0.625 -0.671875 -1.59375 -0.671875q-1.0625 0 -1.9374981 0.734375q-0.859375 0.71875 -1.28125 2.1875zm8.76634 1.3125q0 -1.703125 0.5 -3.453125q0.5 -1.75 1.125 -2.796875q0.625 -1.046875 1.28125 -1.640625q0.671875 -0.59375 1.3125 -0.859375q0.640625 -0.28125 1.421875 -0.28125q1.53125 0 2.546875 1.140625q1.03125 1.140625 1.03125 3.28125q0 2.21875 -0.703125 4.390625q-0.84375 2.5625 -2.34375 3.84375q-1.140625 0.984375 -2.609375 0.984375q-1.5 0 -2.53125 -1.171875q-1.03125 -1.1875 -1.03125 -3.4375zm1.59375 0.40625q0 1.234375 0.40625 1.921875q0.546875 0.96875 1.640625 0.96875q0.96875 0 1.75 -0.875q1.125 -1.21875 1.6875 -3.5625q0.578125 -2.359375 0.578125 -3.859375q0 -1.4375 -0.5625 -2.078125q-0.546875 -0.640625 -1.4375 -0.640625q-0.65625 0 -1.234375 0.34375q-0.5625 0.328125 -1.078125 1.15625q-0.75 1.15625 -1.296875 3.46875q-0.453125 1.953125 -0.453125 3.15625z" fill-rule="nonzero"/><path fill="#cfe2f3" d="m113.35171 151.80315l0 0c0 -3.867447 3.1351776 -7.0026245 7.0026245 -7.0026245l35.978996 0c1.8572235 0 3.6383667 0.7377777 4.9516144 2.0510254c1.3132477 1.3132477 2.0510101 3.0943909 2.0510101 4.951599l0 28.010498c0 3.867447 -3.1351776 7.0026245 -7.0026245 7.0026245l-35.978996 0c-3.867447 0 -7.0026245 -3.1351776 -7.0026245 -7.0026245z" fill-rule="evenodd"/><path stroke="#000000" stroke-width="1.0" stroke-linejoin="round" stroke-linecap="butt" d="m113.35171 151.80315l0 0c0 -3.867447 3.1351776 -7.0026245 7.0026245 -7.0026245l35.978996 0c1.8572235 0 3.6383667 0.7377777 4.9516144 2.0510254c1.3132477 1.3132477 2.0510101 3.0943909 2.0510101 4.951599l0 28.010498c0 3.867447 -3.1351776 7.0026245 -7.0026245 7.0026245l-35.978996 0c-3.867447 0 -7.0026245 -3.1351776 -7.0026245 -7.0026245z" fill-rule="evenodd"/><path fill="#000000" d="m132.12146 169.44714l1.609375 0.15625q-0.34375 1.1875 -1.59375 2.265625q-1.234375 1.078125 -2.96875 1.078125q-1.0625 0 -1.9687576 -0.5q-0.890625 -0.5 -1.359375 -1.4375q-0.46875 -0.953125 -0.46875 -2.15625q0 -1.59375 0.734375 -3.078125q0.734375 -1.484375 1.890625 -2.203125q1.1718826 -0.734375 2.5312576 -0.734375q1.734375 0 2.765625 1.078125q1.03125 1.0625 1.03125 2.921875q0 0.71875 -0.125 1.46875l-7.1250076 0q-0.046875 0.28125 -0.046875 0.5q0 1.359375 0.625 2.078125q0.6250076 0.71875 1.5312576 0.71875q0.84375 0 1.65625 -0.546875q0.828125 -0.5625 1.28125 -1.609375zm-4.7812576 -2.40625l5.4218826 0q0.015625 -0.25 0.015625 -0.359375q0 -1.234375 -0.625 -1.890625q-0.625 -0.671875 -1.59375 -0.671875q-1.0625 0 -1.9375 0.734375q-0.8593826 0.71875 -1.2812576 2.1875zm11.9226 5.6875l2.125 -10.078125q-1.375 1.0625 -3.84375 1.71875l0.296875 -1.5q1.234375 -0.484375 2.4375 -1.28125q1.203125 -0.796875 1.796875 -1.390625q0.359375 -0.359375 0.6875 -0.875l0.96875 0l-2.796875 13.40625l-1.671875 0z" fill-rule="nonzero"/><path fill="#000000" fill-opacity="0.0" d="m62.37664 129.31758l49.984253 0l0 42.015747l-49.984253 0z" fill-rule="evenodd"/><path fill="#000000" d="m73.06414 148.42508l0 -1.859375l1.859375 0l0 1.859375l-1.859375 0zm0 7.8125l0 -1.875l1.859375 0l0 1.875l-1.859375 0zm4.730179 3.703125l0 -13.375l1.484375 0l0 1.25q0.53125 -0.734375 1.1875 -1.09375q0.671875 -0.375 1.625 -0.375q1.234375 0 2.171875 0.640625q0.953125 0.625 1.4375 1.796875q0.484375 1.15625 0.484375 2.546875q0 1.484375 -0.53125 2.671875q-0.53125 1.1875 -1.546875 1.828125q-1.015625 0.625 -2.140625 0.625q-0.8125 0 -1.46875 -0.34375q-0.65625 -0.34375 -1.0625 -0.875l0 4.703125l-1.640625 0zm1.484375 -8.484375q0 1.859375 0.75 2.765625q0.765625 0.890625 1.828125 0.890625q1.09375 0 1.875 -0.921875q0.78125 -0.9375 0.78125 -2.875q0 -1.84375 -0.765625 -2.765625q-0.75 -0.921875 -1.8125 -0.921875q-1.046875 0 -1.859375 0.984375q-0.796875 0.96875 -0.796875 2.84375zm14.610092 4.78125l-1.640625 0l0 -10.453125q-0.59375 0.5625 -1.5625 1.140625q-0.953125 0.5625 -1.71875 0.84375l0 -1.59375q1.375 -0.640625 2.40625 -1.5625q1.03125 -0.921875 1.453125 -1.78125l1.0625 0l0 13.40625z" fill-rule="nonzero"/><path fill="#000000" fill-opacity="0.0" d="m163.33595 165.8084l41.669296 0" fill-rule="evenodd"/><path stroke="#000000" stroke-width="1.0" stroke-linejoin="round" stroke-linecap="butt" d="m163.33595 165.8084l35.669296 0" fill-rule="evenodd"/><path fill="#000000" stroke="#000000" stroke-width="1.0" stroke-linecap="butt" d="m199.00525 167.46013l4.538101 -1.6517334l-4.538101 -1.6517334z" fill-rule="evenodd"/><path fill="#000000" fill-opacity="0.0" d="m61.385826 165.8084l51.968506 0" fill-rule="evenodd"/><path stroke="#000000" stroke-width="1.0" stroke-linejoin="round" stroke-linecap="butt" d="m61.385826 165.8084l45.968506 0" fill-rule="evenodd"/><path fill="#000000" stroke="#000000" stroke-width="1.0" stroke-linecap="butt" d="m107.35433 167.46013l4.5380936 -1.6517334l-4.5380936 -1.6517334z" fill-rule="evenodd"/><path fill="#000000" fill-opacity="0.0" d="m205.01312 144.80052l70.33072 0l0 42.015747l-70.33072 0z" fill-rule="evenodd"/><path fill="#000000" d="m215.32562 163.09552l-0.453125 -2.546875l0 -2.1875l1.859375 0l0 2.1875l-0.40625 2.546875l-1.0 0zm3.015625 0l-0.453125 -2.546875l0 -2.1875l1.875 0l0 2.1875l-0.4375 2.546875l-0.984375 0zm3.6538544 8.625l0 -13.359375l5.015625 0q1.53125 0 2.453125 0.40625q0.921875 0.40625 1.4375 1.25q0.53125 0.84375 0.53125 1.765625q0 0.859375 -0.46875 1.625q-0.453125 0.75 -1.390625 1.203125q1.203125 0.359375 1.859375 1.21875q0.65625 0.859375 0.65625 2.015625q0 0.9375 -0.40625 1.75q-0.390625 0.796875 -0.984375 1.234375q-0.578125 0.4375 -1.453125 0.671875q-0.875 0.21875 -2.15625 0.21875l-5.09375 0zm1.78125 -7.75l2.875 0q1.1875 0 1.6875 -0.140625q0.671875 -0.203125 1.015625 -0.671875q0.34375 -0.46875 0.34375 -1.171875q0 -0.65625 -0.328125 -1.15625q-0.3125 -0.515625 -0.90625 -0.703125q-0.59375 -0.1875 -2.03125 -0.1875l-2.65625 0l0 4.03125zm0 6.171875l3.3125 0q0.859375 0 1.203125 -0.0625q0.609375 -0.109375 1.015625 -0.359375q0.421875 -0.265625 0.6875 -0.75q0.265625 -0.484375 0.265625 -1.125q0 -0.75 -0.390625 -1.296875q-0.375 -0.546875 -1.0625 -0.765625q-0.671875 -0.234375 -1.953125 -0.234375l-3.078125 0l0 4.59375zm16.849823 0.390625q-0.921875 0.765625 -1.765625 1.09375q-0.828125 0.3125 -1.796875 0.3125q-1.59375 0 -2.453125 -0.78125q-0.859375 -0.78125 -0.859375 -1.984375q0 -0.71875 0.328125 -1.296875q0.328125 -0.59375 0.84375 -0.9375q0.53125 -0.359375 1.1875 -0.546875q0.46875 -0.125 1.453125 -0.25q1.984375 -0.234375 2.921875 -0.5625q0.015625 -0.34375 0.015625 -0.421875q0 -1.0 -0.46875 -1.421875q-0.625 -0.546875 -1.875 -0.546875q-1.15625 0 -1.703125 0.40625q-0.546875 0.40625 -0.8125 1.421875l-1.609375 -0.21875q0.21875 -1.015625 0.71875 -1.640625q0.5 -0.640625 1.453125 -0.984375q0.953125 -0.34375 2.1875 -0.34375q1.25 0 2.015625 0.296875q0.78125 0.28125 1.140625 0.734375q0.375 0.4375 0.515625 1.109375q0.078125 0.421875 0.078125 1.515625l0 2.1875q0 2.28125 0.109375 2.890625q0.109375 0.59375 0.40625 1.15625l-1.703125 0q-0.265625 -0.515625 -0.328125 -1.1875zm-0.140625 -3.671875q-0.890625 0.375 -2.671875 0.625q-1.015625 0.140625 -1.4375 0.328125q-0.421875 0.1875 -0.65625 0.53125q-0.21875 0.34375 -0.21875 0.78125q0 0.65625 0.5 1.09375q0.5 0.4375 1.453125 0.4375q0.9375 0 1.671875 -0.40625q0.75 -0.421875 1.09375 -1.140625q0.265625 -0.5625 0.265625 -1.640625l0 -0.609375zm4.188217 4.859375l0 -9.671875l1.46875 0l0 1.46875q0.5625 -1.03125 1.03125 -1.359375q0.484375 -0.328125 1.0625 -0.328125q0.828125 0 1.6875 0.53125l-0.5625 1.515625q-0.609375 -0.359375 -1.203125 -0.359375q-0.546875 0 -0.96875 0.328125q-0.421875 0.328125 -0.609375 0.890625q-0.28125 0.875 -0.28125 1.921875l0 5.0625l-1.625 0zm6.306427 -8.625l-0.453125 -2.546875l0 -2.1875l1.859375 0l0 2.1875l-0.40625 2.546875l-1.0 0zm3.015625 0l-0.453125 -2.546875l0 -2.1875l1.875 0l0 2.1875l-0.4375 2.546875l-0.984375 0z" fill-rule="nonzero"/><path fill="#000000" fill-opacity="0.0" d="m166.23491 128.40683l49.984253 0l0 42.015747l-49.984253 0z" fill-rule="evenodd"/><path fill="#000000" d="m176.92241 147.51433l0 -1.859375l1.859375 0l0 1.859375l-1.859375 0zm0 7.8125l0 -1.875l1.859375 0l0 1.875l-1.859375 0zm4.730179 3.703125l0 -13.375l1.484375 0l0 1.25q0.53125 -0.734375 1.1875 -1.09375q0.671875 -0.375 1.625 -0.375q1.234375 0 2.171875 0.640625q0.953125 0.625 1.4375 1.796875q0.484375 1.15625 0.484375 2.546875q0 1.484375 -0.53125 2.671875q-0.53125 1.1875 -1.546875 1.828125q-1.015625 0.625 -2.140625 0.625q-0.8125 0 -1.46875 -0.34375q-0.65625 -0.34375 -1.0625 -0.875l0 4.703125l-1.640625 0zm1.484375 -8.484375q0 1.859375 0.75 2.765625q0.765625 0.890625 1.828125 0.890625q1.09375 0 1.875 -0.921875q0.78125 -0.9375 0.78125 -2.875q0 -1.84375 -0.765625 -2.765625q-0.75 -0.921875 -1.8125 -0.921875q-1.046875 0 -1.859375 0.984375q-0.796875 0.96875 -0.796875 2.84375zm17.047592 3.203125l0 1.578125l-8.828125 0q-0.015625 -0.59375 0.1875 -1.140625q0.34375 -0.90625 1.078125 -1.78125q0.75 -0.875 2.15625 -2.015625q2.171875 -1.78125 2.9375 -2.828125q0.765625 -1.046875 0.765625 -1.96875q0 -0.984375 -0.703125 -1.640625q-0.6875 -0.671875 -1.8125 -0.671875q-1.1875 0 -1.90625 0.71875q-0.703125 0.703125 -0.703125 1.953125l-1.6875 -0.171875q0.171875 -1.890625 1.296875 -2.875q1.140625 -0.984375 3.03125 -0.984375q1.921875 0 3.046875 1.0625q1.125 1.0625 1.125 2.640625q0 0.796875 -0.328125 1.578125q-0.328125 0.78125 -1.09375 1.640625q-0.75 0.84375 -2.53125 2.34375q-1.46875 1.234375 -1.890625 1.6875q-0.421875 0.4375 -0.6875 0.875l6.546875 0z" fill-rule="nonzero"/><path fill="#cfe2f3" d="m113.35171 79.402885l0 0c0 -3.8674393 3.1351776 -7.0026245 7.0026245 -7.0026245l35.978996 0c1.8572235 0 3.6383667 0.7377777 4.9516144 2.0510254c1.3132477 1.3132477 2.0510101 3.0943909 2.0510101 4.951599l0 28.010498c0 3.867447 -3.1351776 7.0026245 -7.0026245 7.0026245l-35.978996 0c-3.867447 0 -7.0026245 -3.1351776 -7.0026245 -7.0026245z" fill-rule="evenodd"/><path stroke="#000000" stroke-width="1.0" stroke-linejoin="round" stroke-linecap="butt" d="m113.35171 79.402885l0 0c0 -3.8674393 3.1351776 -7.0026245 7.0026245 -7.0026245l35.978996 0c1.8572235 0 3.6383667 0.7377777 4.9516144 2.0510254c1.3132477 1.3132477 2.0510101 3.0943909 2.0510101 4.951599l0 28.010498c0 3.867447 -3.1351776 7.0026245 -7.0026245 7.0026245l-35.978996 0c-3.867447 0 -7.0026245 -3.1351776 -7.0026245 -7.0026245z" fill-rule="evenodd"/><path fill="#000000" d="m124.93395 101.20313l1.671875 0.15625q-0.03125 0.5625 0.125 0.84375q0.15625 0.28125 0.5 0.4375q0.4375 0.203125 1.1562576 0.203125q1.484375 0 2.140625 -0.78125q0.4375 -0.515625 0.796875 -2.25l0.171875 -0.78125q-1.296875 1.296875 -2.734375 1.296875q-1.4687576 0 -2.4687576 -1.078125q-0.984375 -1.078125 -0.984375 -3.0625q0 -1.625 0.78125 -2.984375q0.78125 -1.375 1.859375 -2.0625q1.0781326 -0.703125 2.2031326 -0.703125q1.90625 0 2.9375 1.796875l0.328125 -1.578125l1.515625 0l-1.953125 9.328125q-0.3125 1.546875 -0.84375 2.40625q-0.515625 0.859375 -1.4375 1.328125q-0.921875 0.484375 -2.140625 0.484375q-1.1562576 0 -2.0000076 -0.3125q-0.84375 -0.296875 -1.265625 -0.875q-0.40625 -0.578125 -0.40625 -1.328125q0 -0.21875 0.046875 -0.484375zm2.0625 -5.15625q0 1.0 0.1875 1.5q0.265625 0.6875 0.765625 1.0625q0.5156326 0.375 1.1406326 0.375q0.8125 0 1.609375 -0.5625q0.796875 -0.578125 1.296875 -1.765625q0.5 -1.203125 0.5 -2.28125q0 -1.203125 -0.671875 -1.90625q-0.65625 -0.703125 -1.625 -0.703125q-0.609375 0 -1.171875 0.328125q-0.5625 0.3125 -1.0468826 0.984375q-0.484375 0.65625 -0.734375 1.578125q-0.25 0.921875 -0.25 1.390625zm9.1101 -0.09375q0 -1.703125 0.5 -3.453125q0.5 -1.75 1.125 -2.796875q0.625 -1.046875 1.28125 -1.640625q0.671875 -0.59375 1.3125 -0.859375q0.640625 -0.28125 1.421875 -0.28125q1.53125 0 2.546875 1.140625q1.03125 1.140625 1.03125 3.28125q0 2.21875 -0.703125 4.390625q-0.84375 2.5625 -2.34375 3.84375q-1.140625 0.984375 -2.609375 0.984375q-1.5 0 -2.53125 -1.171875q-1.03125 -1.1875 -1.03125 -3.4375zm1.59375 0.40625q0 1.234375 0.40625 1.921875q0.546875 0.96875 1.640625 0.96875q0.96875 0 1.75 -0.875q1.125 -1.21875 1.6875 -3.5625q0.578125 -2.359375 0.578125 -3.859375q0 -1.4375 -0.5625 -2.078125q-0.546875 -0.640625 -1.4375 -0.640625q-0.65625 0 -1.234375 0.34375q-0.5625 0.328125 -1.078125 1.15625q-0.75 1.15625 -1.296875 3.46875q-0.453125 1.953125 -0.453125 3.15625z" fill-rule="nonzero"/><path fill="#000000" fill-opacity="0.0" d="m40.057743 56.868767l73.291336 36.53543" fill-rule="evenodd"/><path stroke="#000000" stroke-width="1.0" stroke-linejoin="round" stroke-linecap="butt" d="m40.057743 56.868767l67.92154 33.85862" fill-rule="evenodd"/><path fill="#000000" stroke="#000000" stroke-width="1.0" stroke-linecap="butt" d="m107.24239 92.20563l4.79834 0.54636383l-3.3245468 -3.5028534z" fill-rule="evenodd"/><path fill="#000000" fill-opacity="0.0" d="m67.74147 0.002624672l49.984253 0l0 42.015747l-49.984253 0z" fill-rule="evenodd"/><path fill="#000000" d="m78.42897 19.110123l0 -1.859375l1.859375 0l0 1.859375l-1.859375 0zm0 7.8125l0 -1.875l1.859375 0l0 1.875l-1.859375 0zm4.730179 3.703125l0 -13.375l1.484375 0l0 1.25q0.53125 -0.734375 1.1875 -1.09375q0.671875 -0.375 1.625 -0.375q1.234375 0 2.171875 0.640625q0.953125 0.625 1.4375 1.796875q0.484375 1.15625 0.484375 2.546875q0 1.484375 -0.53125 2.671875q-0.53125 1.1875 -1.546875 1.828125q-1.015625 0.625 -2.140625 0.625q-0.8125 0 -1.46875 -0.34375q-0.65625 -0.34375 -1.0625 -0.875l0 4.703125l-1.640625 0zm1.484375 -8.484375q0 1.859375 0.75 2.765625q0.765625 0.890625 1.828125 0.890625q1.09375 0 1.875 -0.921875q0.78125 -0.9375 0.78125 -2.875q0 -1.84375 -0.765625 -2.765625q-0.75 -0.921875 -1.8125 -0.921875q-1.046875 0 -1.859375 0.984375q-0.796875 0.96875 -0.796875 2.84375zm14.610092 4.78125l-1.640625 0l0 -10.453125q-0.59375 0.5625 -1.5625 1.140625q-0.953125 0.5625 -1.71875 0.84375l0 -1.59375q1.375 -0.640625 2.40625 -1.5625q1.03125 -0.921875 1.453125 -1.78125l1.0625 0l0 13.40625z" fill-rule="nonzero"/></g></svg>